<svg xmlns="http://www.w3.org/2000/svg" width="410" height="52" viewBox="0 0 410 52">
  <g id="Groupe_238" data-name="Groupe 238" transform="translate(-630 -52)">
    <rect id="Rectangle_28" data-name="Rectangle 28" width="410" height="52" transform="translate(630 52)" fill="#4d6f97"/>
    <path id="Intersection_1" data-name="Intersection 1" d="M-1194.049,43.414l-13.155-4.022V36.256l14.033,4.29,4.824-15.78L-1207.2,19V11.324a2.988,2.988,0,0,1,.968.13l1.434.438.877-2.868,2.869.877-.878,2.869,11.476,3.508.877-2.868,2.869.877-.877,2.869,1.434.438a3.009,3.009,0,0,1,1.993,3.746l-6.141,20.083a3.012,3.012,0,0,1-2.875,2.122A2.976,2.976,0,0,1-1194.049,43.414Zm-1.791-14.664.878-2.869,2.869.877-.877,2.869ZM-1201.577,27l.877-2.868,2.868.877-.877,2.869Zm-5.627-1.72v-.4l.766-2.506,2.869.877-.878,2.869Z" transform="translate(1837.205 50.216)" fill="#fff"/>
  </g>
</svg>
