<svg xmlns="http://www.w3.org/2000/svg" width="1025.921" height="134.09" viewBox="0 0 1025.921 134.09">
  <g id="bg-footer" transform="translate(-86.52 -381.66)">
    <path id="Tracé_1" data-name="Tracé 1" d="M851.68,515.75h-203a.75.75,0,0,1-.75-.75v-2.68a.75.75,0,0,1,.75-.75h4.25V509.9a.75.75,0,0,1,.75-.75h3.37v-1.78a.75.75,0,0,1,.75-.75h3.9v-1.67a.75.75,0,0,1,.75-.75h4.11v-.84a.75.75,0,0,1,.635-.741l16.19-2.52a.762.762,0,0,1,.115-.009h26.78v-1.56a.75.75,0,0,1,.75-.75h.4l.147-42.973a.75.75,0,0,1,.75-.747h6a.75.75,0,0,1,.75.75v46.75h.37a.75.75,0,0,1,.75.75v1.03h9.5V476.83a.75.75,0,0,1,.75-.75h21.29a.75.75,0,0,1,.75.75v26.635l8.73.06V502.35a.75.75,0,0,1,.75-.75h.2c.033-2.8.151-13.092.218-23.481.105-16.265.024-22.445-.074-24.679a1.129,1.129,0,0,1-.6.17,1.417,1.417,0,0,1-1.062-.548c-.032-.034-.074-.079-.107-.109-.036.025-.091.072-.131.106a1.627,1.627,0,0,1-1.1.471,1.378,1.378,0,0,1-1.07-.516c-.023-.024-.052-.055-.071-.074h0c-.024.022-.06.063-.089.094a1.5,1.5,0,0,1-1.169.576,1.4,1.4,0,0,1-1.182-.665l-.012-.016-.065.081a1.422,1.422,0,0,1-1.141.65,1.469,1.469,0,0,1-1.156-.642l-.03-.036-.049.055a1.544,1.544,0,0,1-1.2.643,1.414,1.414,0,0,0-2.33-.13,1.441,1.441,0,0,1-1.295-.64c-.06,0-.071.011-.174.1a1.634,1.634,0,0,1-1.192.486,1.38,1.38,0,0,1-1.164-.543l-.029.035a1.446,1.446,0,0,1-1.177.617,1.5,1.5,0,0,1-1.183-.593l-.054-.06c-.044.03-.11.089-.157.131a1.723,1.723,0,0,1-1.176.522,1.409,1.409,0,0,1-1.129-.57c-.023-.026-.051-.059-.072-.08-.092,0-.112.01-.268.127a1.625,1.625,0,0,1-1.032.393,1.222,1.222,0,0,1-1.058-.586l-.01-.014a.319.319,0,0,0-.044,0c-.019.016-.05.049-.075.074a1.591,1.591,0,0,1-1.243.544,1.658,1.658,0,0,1-1.281-.571,1.594,1.594,0,0,1-1.229.551,1.3,1.3,0,0,1-1.184-.645c-.032.026-.066.056-.092.079a1.7,1.7,0,0,1-1.174.506,1.6,1.6,0,0,1-1.184-.54,1.649,1.649,0,0,1-1.276.62,1.406,1.406,0,0,1-1.212-.651l-.041.05a1.512,1.512,0,0,1-1.247.651,1.535,1.535,0,0,1-1.226-.589,1.49,1.49,0,0,1-2.366-.032,1.478,1.478,0,0,1-1.168.521,1.438,1.438,0,0,1-1.159-.525,1.678,1.678,0,0,1-1.211.5,1.876,1.876,0,0,1-1.314-.572l-.036-.033-.011.011a1.6,1.6,0,0,1-1.168.553,1.178,1.178,0,0,1-1.068-.629,1.262,1.262,0,0,0-.272.2,1.548,1.548,0,0,1-1.021.469,1.326,1.326,0,0,1-1.026-.558c-.027-.032-.065-.076-.092-.1a1.558,1.558,0,0,0-.217.169,1.77,1.77,0,0,1-1.083.522,1.587,1.587,0,0,1-1.169-.471l-.044-.038,0,0a1.475,1.475,0,0,1-1.117.557,1.281,1.281,0,0,1-.951-.377h-.049a.608.608,0,0,0-.587.258.873.873,0,0,1-.835.377.864.864,0,0,1-.666-.619,2.411,2.411,0,0,1-.193-1.006.864.864,0,0,1-.235-.382l-.053-.033a.869.869,0,0,1-.09-1.53.746.746,0,0,1,.162-.095,19.8,19.8,0,0,1,2.774-.953q.048-.051.107-.1c.248-.217.651-.326,2.124-.648.212-.046.47-.1.672-.15a.74.74,0,0,1,.509-.423l3.914-1.025a1.3,1.3,0,0,1,.1-.127.749.749,0,0,1,.356-.231,36.834,36.834,0,0,1,3.688-.888,2.1,2.1,0,0,1,.932-.459c.33-.1.775-.207,1.323-.326.622-.134,1.231-.247,1.57-.309a2.114,2.114,0,0,1,.97-.435c.325-.1.764-.219,1.306-.363.623-.165,1.243-.322,1.579-.406a.832.832,0,0,1,.388-.223l.147-.039c.107-.027.263-.065.463-.112.334-.079.8-.186,1.38-.319l1.478-.336.026-.043a.791.791,0,0,1,.582-.35c.2-.037,1.248-.281,2.64-.613a.914.914,0,0,1,.42-.284l2.087-.682a.968.968,0,0,1,.048-.259c.122-.376.988-1.8,2.094-1.648a2.356,2.356,0,0,1,1.516,1.237c.025.039.057.089.077.117a.814.814,0,0,1,.221.416,17.692,17.692,0,0,1,1.954.493,2.519,2.519,0,0,1,.709.337,14.1,14.1,0,0,1,3.176.847,2.251,2.251,0,0,1,.559.349c1.358.261,2.356.486,2.97.671a2.854,2.854,0,0,1,.742.3c2.495.305,3.593.757,4.075,1.107a21.918,21.918,0,0,1,4.078.983,3.152,3.152,0,0,1,.764.406c2.989.565,3.987,1.056,4.385,1.445a21.6,21.6,0,0,1,3.28.727,2.443,2.443,0,0,1,1.079.618,9.327,9.327,0,0,1,3.818,1.5c1.066.122,1.156.784,1.156,1a.752.752,0,0,1-.024.19,2.935,2.935,0,0,1-.452.967,1.807,1.807,0,0,0-.021.568,1.034,1.034,0,0,1-.6,1.07,3.55,3.55,0,0,1-.664.251l-.083.025a1.159,1.159,0,0,1-.458.819.989.989,0,0,1-.943.092c-.091-.035-.19-.077-.285-.117l-.026-.011a1.253,1.253,0,0,1-.361.261,1.089,1.089,0,0,1-1.162-.118,1.643,1.643,0,0,0-.462-.224c-.078.062-.158.129-.23.19v42.637l140.672-.307c-.025-2.526-.106-10.98-.15-19.354-.03-5.844-.037-10.507-.02-13.858.01-1.993.029-3.541.057-4.6.015-.584.032-1.018.053-1.326.03-.447.063-.952.559-1.129a1.915,1.915,0,0,1,1.027-.1l0,0a.987.987,0,0,1,.533-.624,1.6,1.6,0,0,1,1.22,0,1.446,1.446,0,0,0,.241.017,2.63,2.63,0,0,1,1.646-.788,2.576,2.576,0,0,1,.623-.469,2.352,2.352,0,0,1,.505-.441v-.238a.749.749,0,0,1,.273-.579c-.733-.2-1.891-.468-2.911-.688a.708.708,0,0,1-.464-.31l-4.282-.714a.749.749,0,0,1-.463-.272l-3.167-.528A.747.747,0,0,1,905,450.9l-3.735-.532a.75.75,0,0,1-.487-.283l-3.506-.466a.75.75,0,0,1-.449-.231l-3.578-.51a.75.75,0,0,1-.509-.313l-3.344-.539a.75.75,0,0,1-.408-.207c-.244-.029-.7-.087-1.585-.209a13.868,13.868,0,0,1-1.881-.292.824.824,0,0,1-.375-.285c-.469-.079-1.538-.276-3.192-.586l-.017,0a.75.75,0,0,1-.328-.149c-.471-.048-1.716-.227-1.776-.236-.338-.049-.821-.121-1.2-.185-.181-.031-.319-.056-.422-.078a1.138,1.138,0,0,1-.44-.172c-.05-.014-.106-.031-.166-.054-.288-.057-1.649-.259-2.867-.431a.75.75,0,0,1-.466-.256c-.305-.044-.907-.131-1.485-.22-1.655-.253-1.747-.287-1.917-.433a28.764,28.764,0,0,1-3.051-.469.748.748,0,0,1-.4-.23c-.326-.046-1.121-.176-3.174-.535a.75.75,0,0,1-.43-.239.245.245,0,0,0-.033-.031l-3.123-.354a.75.75,0,0,1-.522-.3c-.752-.141-2.143-.4-2.663-.5a.75.75,0,0,1-.416-.234c-.307-.032-1.073-.126-3.075-.4a.749.749,0,0,1-.457-.242c-.661-.044-2.082-.152-3-.223a.754.754,0,0,1-.54-.283l-2.64-.31a.748.748,0,0,1-.59-.4l-.01-.02c-.595-.069-1.575-.176-2.472-.272a.742.742,0,0,1-.611-.444c-.391-.065-.785-.113-1.178-.144a.748.748,0,0,1-.131-.022l-1.763-.46c-.2-.009-.708-.034-1.231-.079-.395-.034-.715-.072-.952-.114a1.413,1.413,0,0,1-.863-.4,19.066,19.066,0,0,1-2.482-.305.749.749,0,0,1-.419-.237,15.045,15.045,0,0,1-2.674-.348.75.75,0,0,1-.477-.341l-2.335-.266a.75.75,0,0,1-.531-.318l-2.5-.324a.75.75,0,0,1-.493-.28l-2.337-.238a.749.749,0,0,1-.549-.332l-2.209-.249a.748.748,0,0,1-.464-.233l-2.863-.389a.748.748,0,0,1-.5-.291l-2.788-.286a.75.75,0,0,1-.477-.24c-.173-.029-.405-.071-.721-.129l-.708-.131-.294-.055a.746.746,0,0,1-.6-.514c-7.522-.039-101.1-.515-109.888-.478l-.014.029a.754.754,0,0,1-.684.382,3.447,3.447,0,0,0-.523.032.75.75,0,0,1-.605.338,13.112,13.112,0,0,0-2.31.2.75.75,0,0,1-.591.359,14.459,14.459,0,0,0-2.129.246.75.75,0,0,1-.571.276,15.176,15.176,0,0,0-2.409.157.75.75,0,0,1-.537.3,17.264,17.264,0,0,0-2.469.329.75.75,0,0,1-.53.291c-1.268.111-1.9.2-2.206.261a.749.749,0,0,1-.569.261,12.309,12.309,0,0,0-2.391.147.75.75,0,0,1-.579.312,15.169,15.169,0,0,0-2.228.2.75.75,0,0,1-.673.418,12.713,12.713,0,0,0-2.474.152.75.75,0,0,1-.57.307,16.356,16.356,0,0,0-2.423.228.75.75,0,0,1-.543.232,9.391,9.391,0,0,0-2.09.146.75.75,0,0,1-.527.272,15.042,15.042,0,0,0-2.535.314.75.75,0,0,1-.558.3,8.638,8.638,0,0,0-2.306.316l-.016.021a.75.75,0,0,1-.575.284,10.115,10.115,0,0,0-2.378.218.75.75,0,0,1-.6.351,11.12,11.12,0,0,0-2.4.27.75.75,0,0,1-.613.35,10.614,10.614,0,0,0-2.794.3.75.75,0,0,1-.527.259,16.1,16.1,0,0,0-2.71.292.75.75,0,0,1-.6.329,14.027,14.027,0,0,0-2.408.2.75.75,0,0,1-.531.314,17.233,17.233,0,0,0-2.791.449.75.75,0,0,1-.533.274,11.317,11.317,0,0,0-2.668.352.748.748,0,0,1-.439.205,26.256,26.256,0,0,0-2.919.422.749.749,0,0,1-.525.3,27.19,27.19,0,0,0-3.255.457.749.749,0,0,1-.553.276,19.592,19.592,0,0,0-2.621.214.75.75,0,0,1-.572.3,23.532,23.532,0,0,0-3.219.248.75.75,0,0,1-.576.322,19.53,19.53,0,0,0-3.288.354.75.75,0,0,1-.664.417,19.34,19.34,0,0,0-2.782.165.75.75,0,0,1-.624.4,12.851,12.851,0,0,0-3.457.468.75.75,0,0,1-.6.4,15.22,15.22,0,0,0-2.894.437.75.75,0,0,1-.581.334,17.575,17.575,0,0,0-3.04.347.75.75,0,0,1-.549.377,15.931,15.931,0,0,0-2.949.581.751.751,0,0,1-.4.231,18.292,18.292,0,0,0-3.125.808.75.75,0,0,1-.362.191l-2.681.568.194.256a.75.75,0,0,1-.206,1.092,1.115,1.115,0,0,0-.121.086,1.068,1.068,0,0,1,.2.238,1.229,1.229,0,0,1,.364-.006.686.686,0,0,0,.22,0,1.385,1.385,0,0,1,.533.016.815.815,0,0,1,.5.346l.036.006a.968.968,0,0,1,.593.348H603a.75.75,0,0,1,.675.423,2.61,2.61,0,0,1,.525-.063,1.687,1.687,0,0,1,.965.313c.143.09.16.1.235.1a.6.6,0,0,0,.329-.128,1.642,1.642,0,0,1,.871-.282.754.754,0,0,1,.1.007,2.307,2.307,0,0,1,1.271.606.75.75,0,0,1,.237.547v46.61a.75.75,0,0,1-.757.75L576,502.38h-.011l-3.62-.09a.75.75,0,0,1-.731-.745l-.12-17.97a26.134,26.134,0,0,1-.059-3.553.31.31,0,0,0-.323-.513.75.75,0,0,1-.218-.534c0-.136.091-13.764.2-27.216.064-7.9.121-14.2.171-18.713.03-2.682.057-4.758.08-6.17.013-.761.025-1.345.036-1.736.006-.209.012-.364.017-.473,0-.065.007-.113.011-.152a.754.754,0,0,1,.752-.715l.042,0V422.3a1.457,1.457,0,0,0-.194-.128.75.75,0,0,1-.2-1.181l.81-.86a.75.75,0,0,1,.919-.137l.052.028c.124-.152.283-.37.414-.571a.751.751,0,0,1,.715-.341,1.562,1.562,0,0,1,.423.109,2.5,2.5,0,0,0,.3-.326,1.135,1.135,0,0,0-.083-.25l-4.155-1.27a.75.75,0,0,1-.53-.674l-.164-2.88-5.98-.183a.75.75,0,0,1-.719-.642l-6.218.065a.75.75,0,0,1-.73.578H541.568l-.863.354a.752.752,0,0,1-.228.054,3.13,3.13,0,0,0-.256.4,2.829,2.829,0,0,1-2.276,1.663l-.042,0c-.061,0-.137.008-.218.015-.943.08-2.051.023-3.267-1.691a4.87,4.87,0,0,1-.66-1.314H532.33a.752.752,0,0,1-.1-.006l-.8,1.259a.75.75,0,0,1-.625.347c-.117,0-.245.006-.361.013a12.6,12.6,0,0,1-.6,1.947c-.891,2.2-2.036,2.659-2.84,2.659a.74.74,0,0,1-.113-.008,3.741,3.741,0,0,1-2.74-1.93l-.179-.028a2.253,2.253,0,0,1-.522-.119.75.75,0,0,1-.383-.351A20.189,20.189,0,0,1,522,414.411l-22.415-.4H497.66a.75.75,0,0,1-.75-.732l-.31-12.67a.75.75,0,0,1,.736-.768l3.655-.068a.751.751,0,0,1,.56-.338,1.4,1.4,0,0,1,.722-.678.752.752,0,0,1,.178-.034,6.943,6.943,0,0,1,.858,0,.749.749,0,0,1,.129-.321l.027-.036a.75.75,0,0,1-.183-.534c.012-.214.014-.43.007-.645a.75.75,0,0,1-.278-.573,5.447,5.447,0,0,0-.036-.555.749.749,0,0,1-.373-.525c-.014-.076-.053-.277-.1-.452a.75.75,0,0,1-.384-.742,1.246,1.246,0,0,0,0-.3.75.75,0,0,1-.368-.739,1.571,1.571,0,0,0,.01-.247.75.75,0,0,1-.34-.721,1.6,1.6,0,0,0,.009-.275.957.957,0,0,0-.106-.1,29.006,29.006,0,0,1-.689-1.15q0-.081,0-.162a.75.75,0,0,1-.428-.694.72.72,0,0,0,0-.1.75.75,0,0,1-.385-.621,1.669,1.669,0,0,0-.024-.215l-.326-.838q-.012-.03-.021-.062h-.69a.866.866,0,0,1-.151-.013.779.779,0,0,1-.464.089l-.5-.05a.75.75,0,0,1-.675-.725l-.089-3.062a.75.75,0,0,1-.731-.75v-.447a.128.128,0,0,0-.03,0v.515a.75.75,0,0,1-.348.633l-.112,3.074a9.587,9.587,0,0,1-1.65.953h-.08a.75.75,0,0,1-.75-.75v-1c-.591-.052-1.324-.111-1.631-.114-.423.023-.848.063-1.269.121v1.119a.75.75,0,0,1-.75.75h-1.77a.775.775,0,0,0-.6.15h-3.09a.681.681,0,0,0-.521.12l-3.91.15a.751.751,0,0,1-.206-.021.774.774,0,0,1-.472.151h-3.62a.783.783,0,0,0-.624.1l-3.84-.07a.748.748,0,0,1-.2-.032.767.767,0,0,1-.351.1l-3.73.16a.747.747,0,0,1-.2-.019l0,0a.743.743,0,0,1-.536.217h-3.63a.752.752,0,0,1-.1-.007.769.769,0,0,1-.505.177h-3.82a.831.831,0,0,1-.084,0,.755.755,0,0,1-.466.154h-3.77a.751.751,0,0,0-.59.11h-3.72a.791.791,0,0,1-.323-.065.749.749,0,0,1-.375.084l-3.46-.13a.751.751,0,0,1-.117-.014.76.76,0,0,1-.476.154l-3.36-.05a.723.723,0,0,0-.559.09h-3.4a.826.826,0,0,1-.263-.04.747.747,0,0,1-.357.09h-3.44a.751.751,0,0,0-.56.1h-3.53a.75.75,0,0,0-.56.17h-3.41a.751.751,0,0,1-.117-.009.762.762,0,0,1-.456.159l-3.55.08a.736.736,0,0,0-.663.1l-3.21.1a.757.757,0,0,1-.3-.051.747.747,0,0,1-.438.141h-3.21a.749.749,0,0,1-.2-.027.765.765,0,0,1-.43.137l-3.4.05a.729.729,0,0,1-.177-.018.749.749,0,0,1-.4.118h-3.25a.75.75,0,0,1-.161-.017.792.792,0,0,1-.409.107h-3.27a.768.768,0,0,0-.66.17h-3.19a.945.945,0,0,1-.187-.018.753.753,0,0,1-.453.148h-3.29a.769.769,0,0,0-.53.11h-3.25a.752.752,0,0,0-.66.14h-3.14a.792.792,0,0,0-.639.19l-3.2-.08a.751.751,0,0,1-.153-.02.8.8,0,0,1-.429.11h-3.09a.749.749,0,0,1-.141-.013.77.77,0,0,1-.462.182l-3.05.19a.739.739,0,0,0-.829.689l-.78.06a.75.75,0,0,1-.807-.731l-.09-4.15a.75.75,0,0,1,.9-.752l.724.143v-3.194l-.12-.024v.85a.75.75,0,0,1-.725.749l-3.9.13a.75.75,0,0,1-.775-.75v-.734l-.056-.014-.144,2.858.68-.168a.75.75,0,0,1,.838,1.088l-.507.928-.252,5.357a2.117,2.117,0,0,0-.555.831.75.75,0,0,1-.479.363l-1.175.283a.748.748,0,0,1-.4.334c-.244.087-.93.33-1.367.464a.75.75,0,0,1-.485.556,9.279,9.279,0,0,1-1.317.359l-.035.007a.75.75,0,0,1-.425.425,11.111,11.111,0,0,1-1.212.4l-.011,0a.75.75,0,0,1-.468.445c-.308.1-1.156.374-1.694.53a.751.751,0,0,1-.477.5c-.112.04-.994.352-1.486.494a.75.75,0,0,1-.488.44c-.494.143-1.329.4-1.715.538q-.009.033-.021.066a.75.75,0,0,1-.452.443,7.63,7.63,0,0,0-1.838.945.06.06,0,0,0,0,.035.75.75,0,0,1,.054.321c.444-.012.974-.026,1.5-.038,2.881-.065,2.912-.045,3.153.116a1.468,1.468,0,0,1,.282.265,2.172,2.172,0,0,0,.218.221c.461.016,1.56.137,1.789.163a.75.75,0,0,1,.666.745v10.91a.75.75,0,0,1-.724.75l-13.1.45-11.616.381v2.39a.75.75,0,0,1-.505.709,32.386,32.386,0,0,0-3.822,1.6.858.858,0,0,1,.061.166,1.789,1.789,0,0,0,.854-.1.748.748,0,0,1,.987.557.68.68,0,0,0,.885.509.75.75,0,0,1,.99.733l-1.74,56.66a.75.75,0,0,1-.285.565l-.345.273-.57,20.39a.75.75,0,0,1-.75.729h-28.4a.75.75,0,0,1-.75-.739l-.26-18a2.222,2.222,0,0,1,1.02-1.078,1.95,1.95,0,0,0,.756-.314.524.524,0,0,0-.217-.363l-8.3-3.544-23.428-1.361H262.62a.75.75,0,0,1-.75-.742l-.11-10.52a.75.75,0,0,1,.637-.749,9.508,9.508,0,0,0,1.991-.53,5.264,5.264,0,0,0,1.744-1.879q.013-.023.027-.046a9.192,9.192,0,0,0,.818-3.73c.012-.176.021-.316.032-.423a1.05,1.05,0,0,1,.18-.521.745.745,0,0,1,.049-.113l-1.436.043a.753.753,0,0,1-.349-.075c-.051,0-.122,0-.174.006a.75.75,0,0,1-.356.108l-2.65.12a.75.75,0,0,1-.784-.741l-.21-19.24a3.965,3.965,0,0,1,1.087-1.381,4.1,4.1,0,0,0,.827-.376,4.481,4.481,0,0,0,.171-.571,4.038,4.038,0,0,1,.188-.612,1.126,1.126,0,0,1,.416-.479c-.642-.12-1.432-.266-2.173-.4a.75.75,0,0,1-.616-.738c0-.1,0-.214-.006-.315a6.935,6.935,0,0,1-1.6-.664.749.749,0,0,1-.141-.1,3.429,3.429,0,0,1-1.086-2.39c0-.014,0-.027,0-.041a1.218,1.218,0,0,1,.31-.791.75.75,0,0,1-.007-1.182c.076-.061,1.9-1.561,1.04-3.5q-.01-.022-.018-.045a2.8,2.8,0,0,0-4.906-.663l-.008.011a3.27,3.27,0,0,0-.6,2.419,2.9,2.9,0,0,0,1.306,1.856,1.847,1.847,0,0,0,.315,1.21,2.763,2.763,0,0,1-.371,2.915.755.755,0,0,1-.058.062,4.426,4.426,0,0,1-1.929,1.085c.006.053.013.105.02.155a.751.751,0,0,1-.579.842l-2.295.512a1.259,1.259,0,0,1,.521.465,6.673,6.673,0,0,1,.424.923l.055.138c.249.125.505.241.763.345a3.874,3.874,0,0,0,.9.767.75.75,0,0,1,.372.639l.23,19.21a.75.75,0,0,1-.75.759h-4.4a.748.748,0,0,1,.1.29,11.3,11.3,0,0,0,1.864,4.85,5.208,5.208,0,0,0,2.864,1.883.75.75,0,0,1,.568.7c0,.026.081,2.654.153,5.255.042,1.529.073,2.749.092,3.628.011.524.019.932.021,1.212.006.579.008.775-.225,1.008a4.235,4.235,0,0,1-.511.4.75.75,0,0,1-.418.142c-.468.013-11.477.32-12.021.32h-1.907c-.98.077-20.628,2.276-21.461,2.4a3.032,3.032,0,0,0-.592.134c-.154.194-2.508,3.161-2.985,3.781l-.018.023a.4.4,0,0,0,0,.517,2.039,2.039,0,0,0,.491.063,1.916,1.916,0,0,1,1.1,1.134l.13,16a.75.75,0,0,1-.75.756H86.52v-1.5h127.9l-.119-14.612a.753.753,0,0,1-.3-.344,1.585,1.585,0,0,1-.856-.429,1.89,1.89,0,0,1-.112-2.531c.469-.609,2.506-3.178,2.927-3.708.3-.569,1.256-.714,1.608-.767.564-.085,6.108-.711,11.108-1.269,3.1-.346,10.333-1.15,10.554-1.15h1.93c.408,0,7.645-.2,11.677-.311-.013-1.349-.145-6.081-.25-9.565a6.717,6.717,0,0,1-3.154-2.28l-.021-.029a12.822,12.822,0,0,1-2.016-4.844l-1.924.063c0,.027,0,.056,0,.087v3.05c.006.028.017.073.024.1a1,1,0,0,1-.152,1,.769.769,0,0,1-.709.221.744.744,0,0,1-.122-.035l-.058-.023a.839.839,0,0,1-.8,0,.869.869,0,0,1-.42-.565,1.117,1.117,0,0,1-.021-.394l-.042-.01c-.022.007-.045.012-.069.017a.775.775,0,0,1-.416-.03.869.869,0,0,1-.7-.51,1.017,1.017,0,0,1,.031-.871c-.011-.51-.055-2.686-.059-2.966a1.847,1.847,0,0,1,.556-1.424.742.742,0,0,1,.065-.057,2.306,2.306,0,0,1,1.308-.292c.424-.025.984-.038,1.664-.04.781,0,1.548.01,1.962.019a.961.961,0,0,1,.464-.113,2.44,2.44,0,0,1,.869.11h3.462L252.1,438.6a1.228,1.228,0,0,1-.655-.553c-.272-.12-.541-.25-.8-.388a.751.751,0,0,1-.209-.164,2.038,2.038,0,0,1-.318-.629c-.075-.187-.183-.457-.27-.625a3.106,3.106,0,0,0-.316-.091,2.245,2.245,0,0,1-.557-.2.75.75,0,0,1-.568-.728v-.76a.75.75,0,0,1,.587-.732l2.9-.646a.994.994,0,0,1,.391-.926.748.748,0,0,1,.333-.122,2.915,2.915,0,0,0,1.66-.763,1.258,1.258,0,0,0,.232-1.031.924.924,0,0,1-.242-.223,1,1,0,0,1-.4-1.253,4.408,4.408,0,0,1-1.183-2.2c0-.012,0-.024-.007-.036a4.779,4.779,0,0,1,.873-3.555,4.3,4.3,0,0,1,7.523,1,4.07,4.07,0,0,1-.26,3.794,5.548,5.548,0,0,1-.487.705.9.9,0,0,1,.039.093l.011.029a1.165,1.165,0,0,1-.032,1.049.94.94,0,0,1-.2.229.764.764,0,0,1-.277.343,1.934,1.934,0,0,0,.536,1.094,5.439,5.439,0,0,0,1.572.57h0a.823.823,0,0,1,.654.761c.012.077.022.167.03.274a17.935,17.935,0,0,1,3.206.654c.54.3.443.992.379,1.45a.75.75,0,0,1-.635.638l-.051.02c-.082.03-.172.055-.276.085s-.281.079-.394.126c-.022.078-.047.176-.067.256a2.5,2.5,0,0,1-.641,1.349.708.708,0,0,1-.075.055,5.6,5.6,0,0,1-.887.459,1.253,1.253,0,0,1-.069.119.752.752,0,0,1-.165.18,1.237,1.237,0,0,1-.153.1q-.021.031-.044.061l.2,18.082,1.659-.075a1.03,1.03,0,0,1,.41-.109l.094,0a2.073,2.073,0,0,1,.792.059l3.162-.095h.023a1.033,1.033,0,0,1,.772.432l.042.048h3.086a1.3,1.3,0,0,1,.963.533,2.475,2.475,0,0,1,.457,1.513c.016.867.007,2.4,0,3.037a.977.977,0,0,1,.21.82.816.816,0,0,1-.556.592.919.919,0,0,1-.584-.012.8.8,0,0,1-.669.068.829.829,0,0,1-.565-.772,1.7,1.7,0,0,1,.027-.339,1.743,1.743,0,0,0,.026-.251v-3.048c-.437,0-1.165,0-1.83,0v1.839c.151.582.159.7.126.863-.04.2-.215.667-.962.621a.96.96,0,0,1-.888.008c-.541-.3-.41-.9-.34-1.225.007-.033.017-.077.023-.109-.009-.142-.02-.454-.037-1.2a8.8,8.8,0,0,1-.986,3.71,6.768,6.768,0,0,1-2.3,2.441.75.75,0,0,1-.124.063,11.013,11.013,0,0,1-1.739.526l.1,9.147h7.961l23.58,1.37a.749.749,0,0,1,.251.059l8.48,3.62a.751.751,0,0,1,.089.045,2.032,2.032,0,0,1,.986,1.718v.007a1.843,1.843,0,0,1-1.449,1.6.752.752,0,0,1-.322.329l.241,16.656h26.931l.56-20.011a.75.75,0,0,1,.285-.567l.346-.273,1.7-55.486a2.179,2.179,0,0,1-1.527-.994,2.285,2.285,0,0,1-1.388-.168,1.41,1.41,0,0,1-.641-.685,1.352,1.352,0,0,1-.4-.781,1.18,1.18,0,0,1,.315-.936.751.751,0,0,1,.212-.164,33.894,33.894,0,0,1,4-1.754v-1.774a.747.747,0,0,1-.17-.475v-.33a.75.75,0,0,1,.725-.75l12.51-.41,12.375-.425v-9.511c-.44-.044-.885-.084-1.04-.084a1.646,1.646,0,0,1-1.171-.632c-.787-.011-3.26.048-4.986.1a.747.747,0,0,1-.367-.083c-.694-.358-1.046-.774-1.046-1.237a.9.9,0,0,1,.646-.844,2.021,2.021,0,0,1,.342-.09,1.557,1.557,0,0,1,.376-.69.755.755,0,0,1,.107-.094,9.131,9.131,0,0,1,1.9-1.053,1.275,1.275,0,0,1,.663-.577c.341-.147,1.165-.4,1.653-.545a1.153,1.153,0,0,1,.76-.521c.19-.048.639-.2,1.042-.335a.984.984,0,0,1,.75-.617c.149-.029.906-.263,1.622-.493a1.415,1.415,0,0,1,.871-.571c.226-.06.451-.13.673-.207a1.468,1.468,0,0,1,1.077-.639c.24-.047.48-.106.717-.176.014-.034.024-.055.026-.059a1.046,1.046,0,0,1,.73-.591c.119-.026.619-.193,1.119-.368l0-.006a1.029,1.029,0,0,1,.691-.448l.874-.211c.013-.031.028-.062.044-.094a1.041,1.041,0,0,1,.382-.4l.231-4.9-.138.034a.75.75,0,0,1-.929-.766l.22-4.37a.75.75,0,0,1,.4-.625l.53-.28a.749.749,0,0,1,.532-.065l1,.25a.75.75,0,0,1,.568.728v.545l2.4-.08v-.595a.75.75,0,0,1,.345-.631l.53-.34a.75.75,0,0,1,.553-.1l1.09.22a.75.75,0,0,1,.6.735V388a.75.75,0,0,1-.361.641l-.56.34a.748.748,0,0,1-.535.095l-.144-.029.039,1.786a1.059,1.059,0,0,1,.588-.193,1.181,1.181,0,0,1,.6.121l2.3-.143a.967.967,0,0,1,.77-.388h.037a1.206,1.206,0,0,1,.593.189h2.452a1,1,0,0,1,.709-.27,1.05,1.05,0,0,1,.573.188l2.45.061a.952.952,0,0,1,.7-.309,1.3,1.3,0,0,1,.555.13h2.616a1.089,1.089,0,0,1,.783-.308l.028,0a1.049,1.049,0,0,1,.465.166h2.56a.9.9,0,0,1,.735-.308.944.944,0,0,1,.5.2h2.565a.97.97,0,0,1,.734-.36,1.007,1.007,0,0,1,.633.23h2.428a.981.981,0,0,1,.814-.389,1.121,1.121,0,0,1,.615.219h2.527a.96.96,0,0,1,.713-.32.978.978,0,0,1,.636.23h2.514a1.2,1.2,0,0,1,.648-.294.764.764,0,0,1,.092-.006.982.982,0,0,1,.613.194l2.536-.037a1,1,0,0,1,.771-.356h.026a1.1,1.1,0,0,1,.646.24h2.411a1.053,1.053,0,0,1,.758-.32,1.145,1.145,0,0,1,.715.22l2.441-.076a1.106,1.106,0,0,1,1.53-.123l2.568-.058q.02-.029.042-.058a.929.929,0,0,1,.663-.353.773.773,0,0,1,.094,0,1.234,1.234,0,0,1,.687.249h2.579a.967.967,0,0,1,.1-.108.935.935,0,0,1,.642-.262,1.048,1.048,0,0,1,.666.2h2.676a.961.961,0,0,1,.712-.329,1.055,1.055,0,0,1,.73.229h2.592a.923.923,0,0,1,.7-.32,1.137,1.137,0,0,1,.716.27h2.571a.863.863,0,0,1,.693-.34.762.762,0,0,1,.081,0,1.274,1.274,0,0,1,.628.25l2.507.037.021-.026a1.012,1.012,0,0,1,.793-.356,1.1,1.1,0,0,1,.753.265l2.622.1a.946.946,0,0,1,.685-.284,1.142,1.142,0,0,1,.725.28h2.931a.994.994,0,0,1,.679-.328c.022,0,.044,0,.066,0a1.1,1.1,0,0,1,.646.22h2.894a.9.9,0,0,1,.118-.137.845.845,0,0,1,.636-.232,1.228,1.228,0,0,1,.6.219h3.111a.969.969,0,0,1,.712-.359h.061a1.122,1.122,0,0,1,.582.19h2.77a.945.945,0,0,1,.152-.188.868.868,0,0,1,.646-.241.747.747,0,0,1,.122.016,2.088,2.088,0,0,1,.55.2l3.02-.13a.885.885,0,0,1,.7-.341.765.765,0,0,1,.107.008,1.365,1.365,0,0,1,.608.248l3.038.055a.942.942,0,0,1,.091-.1.9.9,0,0,1,.695-.232.747.747,0,0,1,.075.011,1.4,1.4,0,0,1,.535.226h2.9a.975.975,0,0,1,.734-.34c.025,0,.051,0,.076,0a1.229,1.229,0,0,1,.55.2l3.122-.12a.93.93,0,0,1,.7-.358h.046a1.089,1.089,0,0,1,.657.22h2.244a.979.979,0,0,1,.107-.117.949.949,0,0,1,.7-.252,1.121,1.121,0,0,1,.622.219h.693v-1.01a.75.75,0,0,1,.618-.738,17.045,17.045,0,0,1,2.092-.241h.039c.58,0,2.281.165,2.473.184a.749.749,0,0,1,.235.062l.053-1.453a.75.75,0,0,1,.329-.594v-.5a.75.75,0,0,1,.322-.616,2.294,2.294,0,0,1,1.115-.4.733.733,0,0,1,.093,0,3.419,3.419,0,0,1,1,.192.75.75,0,0,1,.5.707v.3a.75.75,0,0,1,.71.727l.08,2.762a1.05,1.05,0,0,1,.658.27h.787a.781.781,0,0,1,.568-.054.8.8,0,0,1,.567.8,1.633,1.633,0,0,1-.077.46l.276.708a.749.749,0,0,1,.035.117q.012.056.022.112a1.432,1.432,0,0,1,.2.218.748.748,0,0,1,.1.186,2.22,2.22,0,0,1,.094.331,1.955,1.955,0,0,1,.156.123.751.751,0,0,1,.239.405,3.412,3.412,0,0,1,.06.378,1.3,1.3,0,0,1,.351.563,1.474,1.474,0,0,1,.436.765c0,.011,0,.022,0,.034a3.094,3.094,0,0,1,.022.322,1.437,1.437,0,0,1,.283.526.75.75,0,0,1,.025.121q.017.138.021.276a1.3,1.3,0,0,1,.215.309.756.756,0,0,1,.052.135,2.746,2.746,0,0,1,.095.56,1.256,1.256,0,0,1,.262.446c.048.139.089.293.121.429a1.265,1.265,0,0,1,.442.82c.024.169.041.339.053.509a1.157,1.157,0,0,1,.285.762c.008.148.012.3.012.446a.849.849,0,0,1,.368.689,1.017,1.017,0,0,1-.107.438.845.845,0,0,1-.087.331,1.065,1.065,0,0,1-.082.217,1.117,1.117,0,0,1-.168.7,1.061,1.061,0,0,1-.939.461.745.745,0,0,1-.094-.007,5.443,5.443,0,0,0-.847-.055l-.021.034a1.647,1.647,0,0,1-.507.569.75.75,0,0,1-.673.45l-3.516.066.274,11.184H499.6l22.95.41a.75.75,0,0,1,.7.519,18.656,18.656,0,0,0,.993,2.457,3.445,3.445,0,0,1,.5.1.973.973,0,0,1,.7.635,2.244,2.244,0,0,0,1.609,1.2c.449-.04.943-.628,1.363-1.628a10.673,10.673,0,0,0,.631-2.166.83.83,0,0,1,.753-.744,3.543,3.543,0,0,1,.438-.055l.135-.009.595-.934-2.121-6.242c-.356,1.231-.641,2.244-.69,2.475-.008.357.249,2.159.5,3.655a.75.75,0,0,1-.458.817c-.419,1.7-.5,1.786-.624,1.926a.755.755,0,0,1-.137.119.829.829,0,0,1-.768.1.951.951,0,0,1-.554-.731c-.067-.267-.1-.4-.484-.468a1.81,1.81,0,0,1-1.562-1.477.756.756,0,0,1-.012-.135c0-.6.658-16.378.734-18.212l-.353-.96a1.422,1.422,0,0,1-.351-.638.756.756,0,0,1-.019-.085,4.4,4.4,0,0,1,0-1.482.75.75,0,0,1,1.376-.27,9.546,9.546,0,0,1,.63,1.194.745.745,0,0,1,.048.151c.21.74,4.068,11.893,6.739,19.581h.322l3.047-20.071a.965.965,0,0,1-.191-.75.748.748,0,0,1,.052-.172,11.8,11.8,0,0,1,.6-1.175.75.75,0,0,1,1.367.163,5.606,5.606,0,0,1,.231,1.409.751.751,0,0,1-.016.183,1.585,1.585,0,0,1-.189.5c-.062.437-.122.9-.134,1.072.021.114.072.376.132.69.764,3.985,1.788,9.412,1.866,10.522.074,1.063.569,4.221.807,5.739.089.57.129.826.14.913a.952.952,0,0,1-.269.76,4.9,4.9,0,0,1-1.2.857c-.31.174-.533.287-.7.36a3.531,3.531,0,0,1-.36.594,1.066,1.066,0,0,1-1.167.438,1.868,1.868,0,0,1-1.086-1,2.94,2.94,0,0,1-.2-1.859c.057-1.235.063-2.478.02-3.718l-.831,5.28a3.375,3.375,0,0,0,.54,1.215c.82,1.157,1.352,1.111,1.915,1.063.09-.008.182-.016.276-.019.559-.055.77-.372,1.092-.924a1.874,1.874,0,0,1,1.322-1.128l.888-.364a.751.751,0,0,1,.285-.056h14.742a.75.75,0,0,1,.72-.57l7.69-.08h.008a.75.75,0,0,1,.746.672l6.137.188a.75.75,0,0,1,.709.587,1.212,1.212,0,0,1-.133.879l.13,2.279,3.95,1.207a.75.75,0,0,1,.41.308c.138.212.794,1.309.193,2.117s-1.243,1.183-1.787,1.045l-.033.043c-.375.49-.694.794-1.122.794a.76.76,0,0,1-.122-.01l-.083-.015a1.062,1.062,0,0,1,.155.545v2.33a.75.75,0,0,1-.644.743l-.181.025c-.131,4.677-.365,35.684-.48,53.012a1.034,1.034,0,0,1,.817.788,1.824,1.824,0,0,1-.3,1.368,24.649,24.649,0,0,0,.072,3.079c0,.02,0,.04,0,.06l.115,17.273,2.884.072,30.691.3V455.722a.817.817,0,0,0-.112-.039c-.032.017-.075.042-.109.062a2.02,2.02,0,0,1-1.089.335,1.8,1.8,0,0,1-1.036-.329c-.128-.081-.135-.081-.164-.081a1.68,1.68,0,0,0-.271.043,1.424,1.424,0,0,1-1.179-.137,1.073,1.073,0,0,1-.261-.265h-.119a.967.967,0,0,1-.4-.082.895.895,0,0,1-1.369-.61c-.053.027-.114.063-.154.086a2.2,2.2,0,0,1-.263.137.812.812,0,0,1-.97-.222.825.825,0,0,1-.171-.607h-.115a1.352,1.352,0,0,1-1.047-.3.971.971,0,0,1-.281-.7,1.071,1.071,0,0,1,.825-1.024,3.287,3.287,0,0,1-.024-.538,1.245,1.245,0,0,1,.944-1.332l3.212-.68a3.164,3.164,0,0,1,.71-.306,28.15,28.15,0,0,1,2.731-.684,2.478,2.478,0,0,1,.779-.333,21.064,21.064,0,0,1,2.466-.482,2.043,2.043,0,0,1,1.028-.455,20.246,20.246,0,0,1,2.749-.322,2.307,2.307,0,0,1,.852-.364,18.562,18.562,0,0,1,2.56-.391c.361-.348,1.243-.688,3.937-.875a1.939,1.939,0,0,1,1.063-.427,19.071,19.071,0,0,1,2.458-.17,2.257,2.257,0,0,1,1.045-.429,21.95,21.95,0,0,1,2.891-.321,2.217,2.217,0,0,1,1.023-.355,25.956,25.956,0,0,1,2.833-.227,2.075,2.075,0,0,1,.87-.3,20.567,20.567,0,0,1,2.36-.207,2.583,2.583,0,0,1,.871-.3c.6-.126,1.537-.26,2.8-.4a2.277,2.277,0,0,1,.89-.34c.578-.127,1.5-.262,2.754-.4a2.045,2.045,0,0,1,.483-.2,13.737,13.737,0,0,1,2.578-.361,2.377,2.377,0,0,1,.756-.3,20.622,20.622,0,0,1,2.439-.4,1.9,1.9,0,0,1,.878-.356,15.171,15.171,0,0,1,2.16-.2,2.12,2.12,0,0,1,.864-.337,18.674,18.674,0,0,1,2.534-.28c.383-.257,1.188-.48,3.246-.563.38-.312,1.173-.513,3-.614.385-.321,1.191-.528,3.076-.582a5.744,5.744,0,0,1,2.805-.6,2.1,2.1,0,0,1,.788-.311,17.406,17.406,0,0,1,2.322-.3,5.08,5.08,0,0,1,2.712-.444,2.157,2.157,0,0,1,.706-.229,18.152,18.152,0,0,1,2.136-.212c.376-.291,1.158-.451,2.957-.477a1.88,1.88,0,0,1,.886-.383,14.356,14.356,0,0,1,2.1-.222c.377-.3,1.165-.455,2.99-.476a2.191,2.191,0,0,1,.714-.234c.431-.084,1.1-.168,1.99-.251a2.053,2.053,0,0,1,.785-.312,18.474,18.474,0,0,1,2.189-.306,1.894,1.894,0,0,1,.88-.331,16.229,16.229,0,0,1,2.2-.161,2,2,0,0,1,.688-.257,14.74,14.74,0,0,1,1.87-.236,1.9,1.9,0,0,1,.877-.374,13.683,13.683,0,0,1,2.112-.206,1.652,1.652,0,0,1,.864-.342.9.9,0,0,1,.35-.347c.186-.1.186-.1,1.64-.106.8,0,2,0,3.549,0,2.891.006,7.132.019,12.607.04,9.219.035,22.061.091,38.169.166,27.425.129,55.186.271,55.463.273a.75.75,0,0,1,.469.168,1.4,1.4,0,0,1,.364.452c.677.126,1.437.263,1.6.281a.825.825,0,0,1,.545.225l2.806.288a.749.749,0,0,1,.535.312l2.8.381a.748.748,0,0,1,.435.219l2.3.259a.749.749,0,0,1,.537.325l2.2.224a.75.75,0,0,1,.523.294l2.378.308a.747.747,0,0,1,.223.065,1.2,1.2,0,0,1,.353.253l2.372.27a.75.75,0,0,1,.329.12,1.128,1.128,0,0,1,.293.281,13.539,13.539,0,0,0,2.358.244.941.941,0,0,1,.641.312,17.573,17.573,0,0,0,2.3.238.919.919,0,0,1,.722.411,20.313,20.313,0,0,0,2.042.169.749.749,0,0,1,.16.024l1.777.463a15.215,15.215,0,0,1,1.69.237.749.749,0,0,1,.257.1.917.917,0,0,1,.288.3c2.518.27,2.657.3,2.711.318a.834.834,0,0,1,.525.4l2.516.3a.782.782,0,0,1,.512.259c1.124.086,2.538.192,2.712.2a.908.908,0,0,1,.664.286c1.257.171,2.558.341,2.751.355a.741.741,0,0,1,.077.006,1.214,1.214,0,0,1,.631.284c1.167.221,2.737.519,2.858.539a.815.815,0,0,1,.488.265l2.739.311a.75.75,0,0,1,.2.05,1.759,1.759,0,0,1,.435.254c1.331.232,2.76.475,2.985.5a1.149,1.149,0,0,1,.7.292,27.237,27.237,0,0,0,2.718.4.968.968,0,0,1,.653.232c.631.117,2.415.379,2.875.443a1.072,1.072,0,0,1,.606.276,19.86,19.86,0,0,1,2.891.474l.044.013a1.456,1.456,0,0,1,.379.156c.6.121,2.936.444,3.221.467l.06,0a1.285,1.285,0,0,1,.532.19c1.749.328,3.014.559,3.169.579h-.01a.965.965,0,0,1,.661.347c.763.115,2.847.4,3.106.42a.948.948,0,0,1,.608.245l3.34.538a.882.882,0,0,1,.6.32l3.393.483c.023,0,.047.008.069.013a1.08,1.08,0,0,1,.443.224l3.4.451a.743.743,0,0,1,.1.021,1.24,1.24,0,0,1,.506.281l3.674.524a.962.962,0,0,1,.628.3l3.014.5a.907.907,0,0,1,.6.295l4.054.676a1.076,1.076,0,0,1,.684.362c3.5.762,3.755.983,3.9,1.1a1.213,1.213,0,0,1,.321,1.317,1.42,1.42,0,0,1-.668.8V455a.75.75,0,0,1-.66.745.844.844,0,0,0-.278.256.75.75,0,0,1-.287.225,1.069,1.069,0,0,0-.429.347.75.75,0,0,1-.6.308c-.259,0-.8.112-.924.359a.75.75,0,0,1-.517.4,2.933,2.933,0,0,1-1.193,0,.746.746,0,0,1-.106-.03,1.544,1.544,0,0,1-1.329.715l-.048,0c-.2,3.67-.066,25.164.085,39.6a.75.75,0,0,1-.748.758l-142.18.31h0a.75.75,0,0,1-.75-.75V454.51a.75.75,0,0,1,.25-.559c.016-.015.408-.364.71-.591a1.684,1.684,0,0,1,1.748.087.822.822,0,0,1,.206-.195,1.147,1.147,0,0,1,1.091-.01,1.017,1.017,0,0,1,.553-.558,3.682,3.682,0,0,1,.517-.184l.184-.057a3.3,3.3,0,0,1,.117-.92.315.315,0,0,0-.279-.533c-.11-.1-.78-.62-3.508-1.217a.75.75,0,0,1-.535-.451,15.52,15.52,0,0,0-3.67-.84.751.751,0,0,1-.552-.4,12.42,12.42,0,0,0-3.779-1.045.75.75,0,0,1-.449-.268c-.148-.1-.994-.556-4.348-1.11a.75.75,0,0,1-.429-.232c-.093-.069-.815-.543-3.643-.863a.749.749,0,0,1-.469-.239,24.891,24.891,0,0,0-3.346-.769.75.75,0,0,1-.493-.334,10.472,10.472,0,0,0-3.215-.854.75.75,0,0,1-.459-.271,15.785,15.785,0,0,0-2.793-.681.75.75,0,0,1-.54-.418l-.16-.34a.75.75,0,0,1,0-.637,1.033,1.033,0,0,0-.16-.17,1.008,1.008,0,0,0-.12.1.756.756,0,0,1,.089.358v.33a.75.75,0,0,1-.517.713l-2.762.9a.751.751,0,0,1-.469.327c-1.385.332-2.163.515-2.611.615a.748.748,0,0,1-.5.364c-1.2.271-3.083.7-3.722.855h0a.751.751,0,0,1-.373.221c-1.374.339-2.992.769-3.455.935l-.036.044a.75.75,0,0,1-.452.262,28.949,28.949,0,0,0-3.172.7.75.75,0,0,1-.526.373,35.306,35.306,0,0,0-3.466.79.749.749,0,0,1-.474.377l-3.973,1.041q-.02.038-.044.076a1.154,1.154,0,0,1-.815.441c-.216.053-.5.114-.8.18-.393.086-1.062.232-1.4.329a.748.748,0,0,1-.456.326,18.3,18.3,0,0,0-1.789.533.76.76,0,0,1,.05.068.751.751,0,0,1,.1.592,2.554,2.554,0,0,1,.662-.082,1.416,1.416,0,0,1,.989.332l.031-.034a1.421,1.421,0,0,1,1.069-.539,1.571,1.571,0,0,1,1.048.459c.035.03.083.071.119.1.048-.033.121-.1.173-.142a1.8,1.8,0,0,1,1.22-.545,1.475,1.475,0,0,1,1.147.56,2.011,2.011,0,0,1,1.291-.58,1.23,1.23,0,0,1,1.119.546l.013-.013a1.452,1.452,0,0,1,1.06-.513,1.521,1.521,0,0,1,1.045.479c.185.166.227.191.315.191s.087,0,.209-.111a1.45,1.45,0,0,1,1.041-.449,1.3,1.3,0,0,1,1.058.539l.043.051h.049c.017-.016.041-.043.061-.064a1.413,1.413,0,0,1,1.119-.525,1.3,1.3,0,0,1,1.137.639l.016.023.014-.02a1.3,1.3,0,0,1,1.123-.622,1.441,1.441,0,0,1,1.143.571c.03.034.069.078.092.1h.026c.023-.024.058-.067.086-.1a1.479,1.479,0,0,1,1.214-.639,1.387,1.387,0,0,1,1.193.646l.032.043.01,0a1.019,1.019,0,0,0,.141-.138,1.434,1.434,0,0,1,1.083-.549,1.466,1.466,0,0,1,1.069.5,1.306,1.306,0,0,0,.117.108h.03a1.076,1.076,0,0,0,.169-.133,1.7,1.7,0,0,1,1.174-.506,1.24,1.24,0,0,1,1.14.7c.029-.01.055-.039.137-.13a1.28,1.28,0,0,1,2.082,0c.141.155.142.155.241.155a.346.346,0,0,0,.082-.007,1.2,1.2,0,0,0,.087-.084,1.534,1.534,0,0,1,1.191-.529,1.376,1.376,0,0,1,1.158.541l.039-.029a1.814,1.814,0,0,1,1.173-.431,1.489,1.489,0,0,1,1.2.6l.028.032c.044-.031.106-.087.152-.127a1.723,1.723,0,0,1,1.176-.522,1.463,1.463,0,0,1,1.149.581l.049.055.033-.04a1.469,1.469,0,0,1,1.2-.626,1.315,1.315,0,0,1,1.127.572l.014.018h.009c.076,0,.076,0,.188-.1a1.646,1.646,0,0,1,1.2-.489,1.333,1.333,0,0,1,1.182.609l.02.028c.016,0,.038,0,.067,0h.016a1.213,1.213,0,0,1,1.134-.67,1.435,1.435,0,0,1,1.224.694l.023-.026a1.531,1.531,0,0,1,1.183-.638,1.481,1.481,0,0,1,1.169.639,1.517,1.517,0,0,1,1.231-.669,1.426,1.426,0,0,1,1.2.673l0,.005.032-.035a1.522,1.522,0,0,1,1.191-.584,1.5,1.5,0,0,1,1.179.553l0,0c.03-.024.064-.053.093-.078a1.657,1.657,0,0,1,1.125-.479,1.519,1.519,0,0,1,1.123.533,1.561,1.561,0,0,1,1.227-.663.761.761,0,0,1,.545.229c.226.229.269.523.314,1.138.029.4.054.97.075,1.7.039,1.348.066,3.3.08,5.8.024,4.2.013,10.008-.032,17.266-.077,12.354-.23,24.794-.231,24.918a.75.75,0,0,1-.75.741h-.19v1.18a.75.75,0,0,1-.75.75h-.005l-10.23-.07a.75.75,0,0,1-.745-.75V477.58H731.2v26.51a.75.75,0,0,1-.75.75h-11a.75.75,0,0,1-.75-.75v-1.03h-.37a.75.75,0,0,1-.75-.75V455.56h-4.5l-.147,42.973a.75.75,0,0,1-.75.747h-.4v1.56a.75.75,0,0,1-.75.75H683.558L668.06,504v.948a.75.75,0,0,1-.75.75H663.2v1.67a.75.75,0,0,1-.75.75h-3.9v1.78a.75.75,0,0,1-.75.75h-3.37v1.67a.75.75,0,0,1-.75.75h-4.25v1.18h201.5v-1.1H846.8a.75.75,0,0,1-.75-.75v-2.34H841.8a.75.75,0,0,1-.75-.75v-1.72h-4a.75.75,0,0,1-.75-.75v-1.09H832a.75.75,0,0,1-.75-.75v-2a.75.75,0,0,1,.75-.75H945.9l11.577.077a49.034,49.034,0,0,0,2.191-6.321c.968-3.187,1.835-6.359,2.03-7.23.162-.723.582-2.558,1.068-4.683.739-3.226,1.575-6.883,1.719-7.567.222-1.052,1.6-13.231,2.306-22.072a157.029,157.029,0,0,0,.119-18.684c0-.007,0-.013,0-.02-.033-1.223-.442-7.864-.8-13.723-.17-2.758-.327-5.307-.437-7.17-.659,1.483-1.5,3.416-2.271,5.228a.75.75,0,0,1-.97.4l-.4-.16.254.282a.75.75,0,0,1,.057.932l-3.92,5.59a.75.75,0,0,1-.731.31l-.484-.077.23.6a1.725,1.725,0,0,0-.852,1.785l-9.56,13.9a.75.75,0,0,1-.734.316l-.437-.068.187.266a.75.75,0,0,1,.01.846c-1.791,2.691-3.783,5.74-4.082,6.293a.752.752,0,0,1-1.27.329c-.179-.186-.222-.37-.33-1.077-.054-.355-.137-.956-.223-1.8a59.936,59.936,0,0,1-.3-6.052c.006-4.419.519-10.813,2.932-16.174,1.346-2.995,5.34-7,11.869-11.895,1-.751,1.989-1.467,2.926-2.13l-.561.235a.75.75,0,0,1-.942-.322l-.841-1.483-.2,1.512a.75.75,0,0,1-1.315.386l-.732-.862-.436,1.029a.75.75,0,0,1-.59.451l-8.68,1.18a.75.75,0,0,1-.783-.431l-.853-1.862-.283,2a.75.75,0,0,1-.646.639l-15.44,2a.75.75,0,0,1-.609-.2l-.341-.319-.178.351a.75.75,0,0,1-1.133.249l-.258-.2-.206.265a.75.75,0,0,1-.5.283c-.018,0-1.8.225-3.563.438-1.037.125-1.866.222-2.463.289-.357.04-.636.069-.828.087-.389.037-.757.072-1.013-.312a.752.752,0,0,1-.027-.789l.016-.027a29.746,29.746,0,0,1,7.765-7.28,36.2,36.2,0,0,1,9.562-4.557,40.276,40.276,0,0,1,13.534-1.675c1.848,0,10.075.665,15.154,1.089l-3.625-1.743a.75.75,0,0,1-.35-1l.024-.05-.067.065a.75.75,0,0,1-.941.083l-6.89-4.65a.75.75,0,0,1-.279-.9l.392-1-1.1.719a.75.75,0,0,1-1.123-.859l.322-1L945.6,395a.75.75,0,0,1-.846,0l-8.61-5.83a.752.752,0,0,0-.911-.621c-.017-.011-1.705-1.159-3.371-2.3-.979-.668-1.758-1.2-2.316-1.585-.317-.218-.581-.4-.765-.529l-.221-.155-.072-.053a.751.751,0,0,1,.4-1.362l.157-.017a63.989,63.989,0,0,1,8.481-.388,36.239,36.239,0,0,1,13.554,2.518,24.892,24.892,0,0,1,7.23,4.987,40.691,40.691,0,0,1,5.263,6.3,51.685,51.685,0,0,1,3.792,6.5,52.871,52.871,0,0,1,3.919-4.86,44.252,44.252,0,0,1,5.226-4.932,28.067,28.067,0,0,1,6.664-4.016c5.689-2.341,12.079-2.761,16.441-2.7a58.073,58.073,0,0,1,5.929.383c.8.1,1.395.185,1.749.243a2.6,2.6,0,0,1,.9.213.761.761,0,0,1,.393.69c-.015.526-.42.73-1.4,1.224-.638.321-1.532.752-2.664,1.3-.994.478-2.12,1.02-3.365,1.629l-.008,0c-.446.212-.941.067-1.893-.578.022.9-.105,1.542-.646,1.8l-8.179,3.919-.014.006c-.582.265-1.018-.231-1.337-.594q-.17-.193-.392-.468l.106,1.329a.75.75,0,0,1-1.234.63l-.914-.78q.021.071.039.136c.123.441.29,1.046-.231,1.383a.748.748,0,0,1-.083.047c-4.953,2.373-9.334,4.546-12.2,5.995,2.848-.259,5.842-.4,8.728-.4h.309a79.429,79.429,0,0,1,10.854.745,51.689,51.689,0,0,1,11.3,2.831,29.041,29.041,0,0,1,7.84,4.726,47.778,47.778,0,0,1,6.092,6.064,59.545,59.545,0,0,1,3.966,5.248c.494.738.848,1.306,1.059,1.652.421.695.508.839.451,1.146a.751.751,0,0,1-.738.613,15.334,15.334,0,0,1-2.437-.722c-1.315-.413-3.064-.963-4.81-1.513-3.493-1.1-6.978-2.2-6.978-2.2a.75.75,0,0,1-.516-.606l-.207-1.4-.427.944a.75.75,0,0,1-.905.407l-6.91-2.14a.75.75,0,0,1-.528-.707l-.026-2.025-1.015,1.649a.75.75,0,0,1-1.359-.185l-.214-.742-.778.6a.751.751,0,0,1-.688.119l-12.16-3.93a.75.75,0,0,1-.514-.626l-.194-1.645-.877,1.136a.75.75,0,0,1-.819.257l-6.041-1.9c.418.274.847.559,1.283.856,4.693,3.19,7.865,6.006,9.429,8.369a34.12,34.12,0,0,1,4.563,11.093,58.507,58.507,0,0,1,1.424,11.365,74.4,74.4,0,0,1-.244,8.9c-.11,1.237-.225,2.137-.3,2.673-.158,1.1-.209,1.268-.448,1.464a.754.754,0,0,1-1.008-.05,16.168,16.168,0,0,1-1.459-2.67c-.615-1.189-1.222-2.378-1.228-2.39a.75.75,0,0,1-.077-.427l.156-1.345-1.047-.45a.75.75,0,0,1-.424-.9l.382-1.307-1.383-.581a.75.75,0,0,1-.37-.336l-3.54-6.58a.75.75,0,0,1,.089-.841l1.211-1.425-1.631.4a.75.75,0,0,1-.843-.38l-5.1-9.72a.75.75,0,0,1,.136-.881l.9-.888-1.258.22a.75.75,0,0,1-.7-1.227l.538-.628-.776.118a.75.75,0,0,1-.775-.391c-.8-1.514-1.8-3.4-2.665-5.016a223.759,223.759,0,0,1,1.9,36.14c0,.606-.28,3.377-.763,8.194-.674,6.718-1.6,15.918-1.6,18.371,0,3.558-2.718,17.018-3.47,20.675l12.913.075,133-.25,0,1.5-133,.25h-.006l-13.83-.08a.75.75,0,0,1-.73-.9c.036-.173,3.624-17.379,3.624-21.266,0-2.529.89-11.4,1.6-18.521.388-3.874.755-7.532.755-8.059,0-.007,0-.014,0-.022a222.21,222.21,0,0,0-1.921-36.172l-.656-3.584a.84.84,0,0,1-.023-.474.75.75,0,0,1,.73-.578.76.76,0,0,1,.09.005.752.752,0,0,1,.254.013c.341.076.441.258.709.744.125.227.305.558.535.985.386.717.92,1.714,1.587,2.966.818,1.535,1.639,3.083,2.038,3.836l2.244-.34a.75.75,0,0,1,.682,1.229l-.492.574,1.553-.271a.75.75,0,0,1,.657,1.271l-2.2,2.18,4.57,8.71,3.31-.81a.75.75,0,0,1,.75,1.214l-2.379,2.8,3.172,5.9,1.755.737a.75.75,0,0,1,.429.9l-.384,1.313.95.408a.75.75,0,0,1,.449.775l-.194,1.675c.47.919.962,1.875,1.377,2.674a70.989,70.989,0,0,0,.356-10.566,56.17,56.17,0,0,0-1.43-10.845,32.424,32.424,0,0,0-4.289-10.339c-3.5-5.284-15.339-11.892-15.458-11.958a.75.75,0,0,1,.589-1.371l11.4,3.593,1.68-2.176a.75.75,0,0,1,1.338.37l.354,2.992,11.327,3.661,1.337-1.029a.75.75,0,0,1,1.178.386l.049.171,1.481-2.406a.75.75,0,0,1,1.389.383l.053,4.065,5.757,1.783,1.207-2.667a.75.75,0,0,1,1.425.2l.511,3.466c2.968.937,8.694,2.742,11.654,3.67a58.011,58.011,0,0,0-4.433-5.9,45.683,45.683,0,0,0-5.826-5.734,27.39,27.39,0,0,0-7.278-4.363,50.2,50.2,0,0,0-10.972-2.744,77.913,77.913,0,0,0-10.648-.73,93.065,93.065,0,0,0-12.629.813,1.947,1.947,0,0,1-.291.032.755.755,0,0,1-.735-.585.767.767,0,0,1,.422-.864c.062-.037.147-.086.261-.148.214-.118.525-.283.924-.491.846-.441,2.012-1.036,3.374-1.721,1.892-.951,5.746-2.873,10.685-5.244-.171-.589-.538-1.646-.873-2.543a.75.75,0,0,1,1.189-.833l1.621,1.383-.166-2.073a.75.75,0,0,1,1.355-.5c.653.9,1.451,1.942,1.874,2.425l7.522-3.605a10.089,10.089,0,0,0-.126-2.048.75.75,0,0,1,1.218-.691,12.623,12.623,0,0,0,1.872,1.315c1.167-.57,2.225-1.08,3.166-1.532.586-.282,1.16-.558,1.667-.805a56.417,56.417,0,0,0-6.256-.4,41.373,41.373,0,0,0-15.54,2.592c-4.706,1.936-8.77,5.729-11.35,8.569a48.148,48.148,0,0,0-4.522,5.77.75.75,0,0,1-1.323-.11,47.969,47.969,0,0,0-4.23-7.481,39.146,39.146,0,0,0-5.062-6.053,23.4,23.4,0,0,0-6.777-4.681,34.786,34.786,0,0,0-12.988-2.393,62.376,62.376,0,0,0-6.47.2c1.3.892,3.144,2.147,4.645,3.168l.815-.51a.75.75,0,0,1,1.129.8l-.2.889,7.76,5.254,2.348-1.619a.75.75,0,0,1,1.14.848l-.35,1.086,1.3-.845a.75.75,0,0,1,1.107.9l-1.03,2.62,5.888,3.973,2.663-2.577a.75.75,0,0,1,1.2.865l-1.533,3.173,6.623,3.184a.75.75,0,0,1-.389,1.423c-.165-.014-16.557-1.427-19.106-1.427h-.031a38.8,38.8,0,0,0-13.009,1.6,34.712,34.712,0,0,0-9.155,4.347,31.742,31.742,0,0,0-6.34,5.546c1.433-.166,3.5-.419,5.074-.615l.479-.615a.75.75,0,0,1,1.056-.128l.131.1.216-.424a.75.75,0,0,1,1.181-.208l.812.759,14.523-1.881.56-3.974a.75.75,0,0,1,1.424-.208l1.688,3.684,7.706-1.047.743-1.757a.75.75,0,0,1,1.262-.193l.429.506.276-2.05a.75.75,0,0,1,1.4-.27l1.612,2.841,7.056-2.953a.75.75,0,0,1,.685,1.329c-.044.027-4.488,2.794-9.249,6.367-6.23,4.674-10.169,8.583-11.392,11.3-2.251,5-2.764,11.007-2.8,15.162a58.772,58.772,0,0,0,.321,6.636c.276-.427.616-.949,1.036-1.59.71-1.085,1.426-2.167,1.809-2.744l-.906-1.291a.75.75,0,0,1,.729-1.172l1.714.267,8.928-12.981-1.531-1.439a.75.75,0,0,1,.719-1.268l1.321.377-.157-.4a.75.75,0,0,1,.817-1.011l1.308.207,3.309-4.718-2.021-2.246a.75.75,0,0,1,.838-1.2l2.719,1.1c.322-.751.871-2.025,1.424-3.287.5-1.152.914-2.069,1.216-2.726.182-.4.329-.7.436-.914.064-.126.116-.223.159-.294a.781.781,0,0,1,.86-.431.756.756,0,0,1,.605.728h0c.027.8.3,5.288.6,10.039.36,5.853.769,12.485.8,13.763a158.517,158.517,0,0,1-.121,18.862s0,.007,0,.01c-.693,8.624-2.071,21.018-2.334,22.264-.147.7-.985,4.361-1.725,7.593-.466,2.035-.906,3.958-1.067,4.677-.2.894-1.08,4.117-2.058,7.338-1.873,6.168-2.433,6.873-2.616,7.1a.75.75,0,0,1-.587.284h-.005l-12-.08H832.75v.5h4.3a.75.75,0,0,1,.75.75v1.09h4a.75.75,0,0,1,.75.75v1.72h4.25a.75.75,0,0,1,.75.75v2.34h4.13a.75.75,0,0,1,.75.75V515A.75.75,0,0,1,851.68,515.75ZM525.562,412.257a.318.318,0,0,0,.264.208l.035,0a2.279,2.279,0,0,1,.852.306c.044-.175.088-.353.129-.522a.75.75,0,0,1,.245-.4,20.076,20.076,0,0,1-.407-3.547c.072-.442,1.091-3.9,1.4-4.952a.748.748,0,0,1,.213-.341l-.143-.413c-.784-2.269-1.445-4.184-1.97-5.716C525.948,402.5,525.588,411.237,525.562,412.257Zm10.569-10.044a.749.749,0,0,1,.333.286,8.031,8.031,0,0,1,.739,1.49.745.745,0,0,1,.044.19,47.536,47.536,0,0,1,.163,6.737.763.763,0,0,1-.014.114,1.625,1.625,0,0,0,.022.854,1.023,1.023,0,0,1,.653-.616,8.738,8.738,0,0,0,1.292-.74c-.024-.157-.056-.36-.089-.568-.259-1.656-.742-4.74-.821-5.867-.046-.658-.514-3.342-1.394-7.989Z"/>
  </g>
</svg>
