<svg xmlns="http://www.w3.org/2000/svg" width="90" height="90" viewBox="0 0 90 90">
  <g id="btn-info" transform="translate(-152 -1591)">
    <circle id="Ellipse_70" data-name="Ellipse 70" cx="45" cy="45" r="45" transform="translate(152 1591)" fill="#40608d"/>
    <path id="Icon_awesome-info" data-name="Icon awesome-info" d="M1.626,34.494H3.252V22.748H1.626A1.626,1.626,0,0,1,0,21.122V17.238a1.626,1.626,0,0,1,1.626-1.626h9.107a1.626,1.626,0,0,1,1.626,1.626V34.494h1.626a1.626,1.626,0,0,1,1.626,1.626V40a1.626,1.626,0,0,1-1.626,1.626H1.626A1.626,1.626,0,0,1,0,40V36.12A1.626,1.626,0,0,1,1.626,34.494ZM7.806,0A5.854,5.854,0,1,0,13.66,5.854,5.854,5.854,0,0,0,7.806,0Z" transform="translate(189.194 1615.185)" fill="#fff"/>
  </g>
</svg>
