<svg xmlns="http://www.w3.org/2000/svg" width="90" height="90" viewBox="0 0 90 90">
  <g id="btn-info" transform="translate(-152 -1591)">
    <circle id="Ellipse_70" data-name="Ellipse 70" cx="45" cy="45" r="45" transform="translate(152 1591)" fill="#81b2dc"/>
    <path id="Intersection_3" data-name="Intersection 3" d="M-1183.469,88.525v-2.2a2.806,2.806,0,0,1,2.806-2.806h2.806V63.254h-2.806a2.806,2.806,0,0,1-2.806-2.806v-6.7a2.806,2.806,0,0,1,2.806-2.806h15.714a2.806,2.806,0,0,1,2.806,2.806V83.523h2.806a2.806,2.806,0,0,1,2.806,2.806v.942A44.916,44.916,0,0,1-1172,90,45.073,45.073,0,0,1-1183.469,88.525ZM-1180.1,34.1A10.1,10.1,0,0,1-1170,24a10.1,10.1,0,0,1,10.1,10.1A10.1,10.1,0,0,1-1170,44.2,10.1,10.1,0,0,1-1180.1,34.1Z" transform="translate(1369 1590.59)" fill="#4d6f97"/>
  </g>
</svg>
