<svg xmlns="http://www.w3.org/2000/svg" width="90" height="90" viewBox="0 0 90 90">
  <g id="btn-pmr" transform="translate(-40 -1591)">
    <circle id="Ellipse_62" data-name="Ellipse 62" cx="45" cy="45" r="45" transform="translate(40 1591)" fill="#81b2dc"/>
    <path id="Intersection_2" data-name="Intersection 2" d="M-1190.106,85.61a15.6,15.6,0,0,0,12.966-13.15h3.406l3.578,7.617a24.606,24.606,0,0,1-7.326,9.415A44.7,44.7,0,0,1-1190.106,85.61Zm27.919.969-8.724-18.565h-19.409a4.447,4.447,0,0,1-4.4-3.818c-4.709-32.963-4.439-30.916-4.491-31.756a8.894,8.894,0,0,1,9.317-8.884,8.923,8.923,0,0,1,8.466,8.644,8.9,8.9,0,0,1-7.588,9.038l.649,4.542h18.059A2.223,2.223,0,0,1-1168.087,48V52.45a2.223,2.223,0,0,1-2.223,2.224h-16.79l.635,4.446h18.377a4.448,4.448,0,0,1,4.025,2.556l7.992,17.009,5.027-2.55a2.224,2.224,0,0,1,2.98,1l1.976,3.983a2.213,2.213,0,0,1,.187,1.436,44.751,44.751,0,0,1-14.124,6.169A4.427,4.427,0,0,1-1162.187,86.579Zm-51.576-28.492A24.607,24.607,0,0,1-1201.6,47.519c.367,2.567.8,5.609,1.318,9.217a15.575,15.575,0,0,0-7.826,13.283A44.8,44.8,0,0,1-1213.763,58.088Z" transform="translate(1255.696 1591.098)" fill="#4d6f97"/>
  </g>
</svg>
