<svg xmlns="http://www.w3.org/2000/svg" width="90" height="90" viewBox="0 0 90 90">
  <g id="btn-pmr" transform="translate(-40 -1591)">
    <circle id="Ellipse_62" data-name="Ellipse 62" cx="45" cy="45" r="45" transform="translate(40 1591)" fill="#40608d"/>
    <path id="Icon_awesome-wheelchair" data-name="Icon awesome-wheelchair" d="M41.39,32.177l1.187,2.391a1.335,1.335,0,0,1-.6,1.789L36.513,39.1a2.67,2.67,0,0,1-3.6-1.256L27.672,26.7H16.019a2.67,2.67,0,0,1-2.643-2.292C10.548,4.614,10.711,5.844,10.679,5.34A5.34,5.34,0,1,1,16.8,10.622l.39,2.727H28.033a1.335,1.335,0,0,1,1.335,1.335v2.67a1.335,1.335,0,0,1-1.335,1.335H17.953l.381,2.67H29.368a2.67,2.67,0,0,1,2.416,1.534l4.8,10.213L39.6,31.575A1.335,1.335,0,0,1,41.39,32.177ZM25.977,29.368H23.932a9.344,9.344,0,1,1-13.894-9.441c-.31-2.166-.571-3.993-.792-5.534A14.684,14.684,0,1,0,28.125,33.94Z" transform="translate(65.91 1614.642)" fill="#fff"/>
  </g>
</svg>
