<svg xmlns="http://www.w3.org/2000/svg" xmlns:xlink="http://www.w3.org/1999/xlink" width="273.5" height="151.5" viewBox="0 0 273.5 151.5">
  <defs>
    <clipPath id="clip-path">
      <path id="Tracé_1127" data-name="Tracé 1127" d="M5.7,0H267.8a5.525,5.525,0,0,1,5.7,5.335V146.165a5.525,5.525,0,0,1-5.7,5.335H5.7A5.525,5.525,0,0,1,0,146.165V5.335A5.525,5.525,0,0,1,5.7,0Z" transform="translate(2296.5 514.5)" fill="#81b2dc"/>
    </clipPath>
  </defs>
  <g id="ico-conseil" transform="translate(-2296.5 -514.5)" clip-path="url(#clip-path)">
    <g id="Groupe_156" data-name="Groupe 156" transform="translate(2101.682 -275.5)">
      <path id="Union_1" data-name="Union 1" d="M274.429,155.548H139.444c-7.242,0-22.514-4.939-32.661-18.191a48.261,48.261,0,0,1-9.248-21.925,71.01,71.01,0,0,1,.9-25.3H-1.515l.052-5.118a100.04,100.04,0,0,1,10.274-40A71.9,71.9,0,0,1,32.975,17.12C45.53,8.722,61.06,4.463,79.134,4.463c13.431,0,25.594,2.364,36.152,7.026a70.7,70.7,0,0,1,20.5,13.723A108.815,108.815,0,0,1,168.074,5.695a104.208,104.208,0,0,1,37.3-7.195c26.362,0,50.951,9.4,69.817,26.572A68.055,68.055,0,0,1,295.152,11.5c10.432-4.667,22.534-7.034,35.969-7.034,18.057,0,33.693,4.25,46.475,12.631A74.9,74.9,0,0,1,402.525,44.9a102,102,0,0,1,11.461,39.952l.212,5.27H311.261c3.255,16.193,1.484,30.216-5.288,41.757-10.744,18.309-30.122,23.31-30.942,23.514ZM9.045,79.994h102.4l-1.726,6.388c-5.055,18.709-3.337,33.787,5.106,44.814,8.145,10.638,20.314,14.219,24.615,14.219H273.1a44.517,44.517,0,0,0,8.766-3.855A40.845,40.845,0,0,0,297.3,126.649c6.162-10.58,7.06-24.125,2.671-40.259l-1.74-6.4H403.3a93.907,93.907,0,0,0-9.871-30.607C380.947,26.3,359.983,14.6,331.121,14.6c-22.268,0-39.742,7.065-51.938,21L275.6,39.686l-3.829-3.862c-23.453-23.658-51.666-27.191-66.4-27.191-24,0-48.161,9.949-66.3,27.295l-3.764,3.6-3.494-3.862C119.168,21.685,101.442,14.6,79.134,14.6,50.2,14.6,29.58,26.366,17.855,49.58A91.3,91.3,0,0,0,9.045,79.994Z" transform="translate(190.318 895.293)" fill="#4d6f97"/>
      <path id="Ellipse_9" data-name="Ellipse 9" d="M45,10.133A34.865,34.865,0,1,0,79.863,45,34.9,34.9,0,0,0,45,10.133M45,0A45,45,0,1,1,0,45,45,45,0,0,1,45,0Z" transform="translate(224.704 816.999)" fill="#4d6f97"/>
      <path id="Ellipse_10" data-name="Ellipse 10" d="M45,10.133A34.865,34.865,0,1,0,79.863,45,34.9,34.9,0,0,0,45,10.133M45,0A45,45,0,1,1,0,45,45,45,0,0,1,45,0Z" transform="translate(476.692 816.999)" fill="#4d6f97"/>
      <path id="Ellipse_11" data-name="Ellipse 11" d="M56.247,10.133A46.114,46.114,0,0,0,23.64,88.855,46.114,46.114,0,1,0,88.855,23.64,45.812,45.812,0,0,0,56.247,10.133M56.247,0A56.247,56.247,0,1,1,0,56.247,56.247,56.247,0,0,1,56.247,0Z" transform="translate(339.448 790)" fill="#4d6f97"/>
      <circle id="Ellipse_65" data-name="Ellipse 65" cx="49" cy="49" r="49" transform="translate(347.318 797.5)" fill="#4d6f97"/>
      <ellipse id="Ellipse_66" data-name="Ellipse 66" cx="81.5" cy="45" rx="81.5" ry="45" transform="translate(313.318 903.5)" fill="#4d6f97"/>
    </g>
  </g>
</svg>
