<svg xmlns="http://www.w3.org/2000/svg" xmlns:xlink="http://www.w3.org/1999/xlink" width="197" height="228.941" viewBox="0 0 197 228.941">
  <defs>
    <clipPath id="clip-path">
      <path id="Tracé_1130" data-name="Tracé 1130" d="M4.1,0H192.9c2.267,0,4.1,3.609,4.1,8.061V220.879c0,4.452-1.837,8.061-4.1,8.061H4.1c-2.267,0-4.1-3.609-4.1-8.061V8.061C0,3.609,1.837,0,4.1,0Z" transform="translate(1570 437.059)" fill="#81b2dc"/>
    </clipPath>
  </defs>
  <g id="ico-urba" transform="translate(-1570 -437.059)" clip-path="url(#clip-path)">
    <g id="Calque_2" data-name="Calque 2" transform="translate(1466.5 438.033)">
      <g id="Calque_1" data-name="Calque 1" transform="translate(-1 -0.974)">
        <path id="Rectangle_22" data-name="Rectangle 22" d="M8.55-1.5H33.084A10.061,10.061,0,0,1,43.134,8.55V122.312a10.061,10.061,0,0,1-10.05,10.05H8.55A10.061,10.061,0,0,1-1.5,122.312V8.55A10.061,10.061,0,0,1,8.55-1.5ZM33.084,125.008a2.7,2.7,0,0,0,2.7-2.7V8.55a2.7,2.7,0,0,0-2.7-2.7H8.55a2.7,2.7,0,0,0-2.7,2.7V122.312a2.7,2.7,0,0,0,2.7,2.7Z" transform="translate(1.5 134.11)" fill="#4d6f97"/>
        <path id="Tracé_29" data-name="Tracé 29" d="M92.517,136.988a116.211,116.211,0,0,1-21.2-2.084,182.649,182.649,0,0,1-31.643-9.171A227.4,227.4,0,0,1,7.1,110.3l3.783-6.306a224.572,224.572,0,0,0,31.546,14.92c16.577,6.341,40.788,13.194,61.987,9.829,11.049-1.754,21.465-2.944,31.537-4.094,28.7-3.278,51.373-5.867,67.013-18.838,3.467-2.875,7.628-6.117,12.033-9.55,9.807-7.641,20.923-16.3,29.808-25.046,9.695-9.54,14.846-17.414,15.311-23.4a9.539,9.539,0,0,0-2.818-7.7c-5.317-5.661-11.21-1.687-25.477,10.244C215.8,63.762,193.847,82.117,161.456,80.1A972.92,972.92,0,0,1,64.351,69.39l1.173-7.259A965.6,965.6,0,0,0,161.9,72.756c29.475,1.839,49.285-14.727,65.2-28.037,6.689-5.593,12.465-10.424,17.916-12.851,6.84-3.046,12.774-1.965,17.638,3.214a16.865,16.865,0,0,1,4.789,13.3c-.342,4.4-2.188,9.063-5.646,14.246a89.7,89.7,0,0,1-11.838,13.828c-9.189,9.042-20.482,17.841-30.447,25.6-4.36,3.4-8.478,6.605-11.859,9.409-8,6.638-17.98,11.237-31.394,14.474-11.815,2.851-25.252,4.385-39.479,6.01-9.994,1.141-20.328,2.322-31.219,4.051A83.287,83.287,0,0,1,92.517,136.988Z" transform="translate(33.994 135.968)" fill="#4d6f97"/>
        <path id="Tracé_30" data-name="Tracé 30" d="M163.986,85.068l-7.349-.249c.2-5.844-1.441-10.48-5.011-14.173-8.515-8.808-26-9.759-33.128-9.759h-.029a134.188,134.188,0,0,1-31.185-3.935A134.19,134.19,0,0,1,57.938,45.9a118.314,118.314,0,0,0-25.33-8.5l-.043-.009A92.728,92.728,0,0,0,8.3,35.177L8,27.829a100.086,100.086,0,0,1,26.168,2.376,125.679,125.679,0,0,1,26.956,9.061l.133.065a127.27,127.27,0,0,0,57.258,14.2c10.017,0,28.31,1.564,38.4,12C161.872,70.665,164.251,77.237,163.986,85.068Z" transform="translate(35.848 125.424)" fill="#4d6f97"/>
        <path id="Ligne_14" data-name="Ligne 14" d="M5.854,53.654H-1.5V0H5.854Z" transform="translate(66.994 105.567)" fill="#4d6f97"/>
        <path id="Ligne_15" data-name="Ligne 15" d="M5.854,97.228H-1.5V0H5.854Z" transform="translate(227.796 108.073)" fill="#4d6f97"/>
        <path id="Tracé_31" data-name="Tracé 31" d="M127.39-.974h0a15.443,15.443,0,0,1,11.65,5.3c9.872,9.792,102.7,98.443,105.091,100.721a13.757,13.757,0,0,1,.68,19.756l-.037.038a13.289,13.289,0,0,1-9.6,4.057c-6.293,0-11.533-4.064-12.11-4.527l-.089-.071-.084-.076L125.974,35.986,30.122,124.97l-.094.076a16.85,16.85,0,0,1-21.967-.614l-.134-.129a12.6,12.6,0,0,1-3.881-9.343c.187-7.144,6.27-12.906,7.044-13.612L115.784,4.271A15.442,15.442,0,0,1,127.39-.974Zm112.146,120.65a6.4,6.4,0,0,0-.357-9.2l-.087-.08c-.958-.914-95.871-91.549-105.335-100.96l-.106-.105-.1-.113A8.1,8.1,0,0,0,127.39,6.38h0a8.1,8.1,0,0,0-6.165,2.841l-.139.162-.156.145L16.045,106.784c-1.26,1.157-4.568,4.935-4.648,8.388a5.184,5.184,0,0,0,1.682,3.884,9.5,9.5,0,0,0,12.225.353L125.926,26l101.811,92.689c1.113.851,4.377,2.853,7.435,2.853A5.848,5.848,0,0,0,239.536,119.676Z" transform="translate(22.848 0.974)" fill="#4d6f97"/>
        <path id="Tracé_32" data-name="Tracé 32" d="M19.084,49.427H11.73V3.67H46.337v21.7H38.984V11.024h-19.9Z" transform="translate(56.164 21.099)" fill="#4d6f97"/>
        <path id="Tracé_33" data-name="Tracé 33" d="M78.164,88.238H70.811v-60H29.2V82.211H21.85V20.88H78.164Z" transform="translate(100.018 95.677)" fill="#4d6f97"/>
      </g>
    </g>
  </g>
</svg>
