<svg xmlns="http://www.w3.org/2000/svg" width="59.604" height="54" viewBox="0 0 59.604 54">
  <path id="ico-urba" d="M-3265.039,99.647a36.074,36.074,0,0,1-6.255-1.814,47.454,47.454,0,0,1-5.74-2.655v1.61a1.99,1.99,0,0,1-1.986,1.988h-4.85a1.99,1.99,0,0,1-1.987-1.988V74.282a1.99,1.99,0,0,1,1.987-1.988h4.85a1.99,1.99,0,0,1,1.986,1.988v2.09a19.754,19.754,0,0,1,4.124.3V68.675l-2.476,2.3-.018.015a3.338,3.338,0,0,1-2.1.746,3.324,3.324,0,0,1-2.242-.868l-.027-.025a2.493,2.493,0,0,1-.767-1.848,4.277,4.277,0,0,1,1.393-2.693l6.779-6.291h-.067V50.96h6.842v2.765l7.142-6.627a3.052,3.052,0,0,1,2.294-1.038h0a3.053,3.053,0,0,1,2.3,1.048c1.951,1.937,20.3,19.475,20.775,19.926a2.737,2.737,0,0,1,.895,1.919,2.735,2.735,0,0,1-.76,1.989l-.007.007a2.627,2.627,0,0,1-1.9.8,4.22,4.22,0,0,1-2.395-.9l-.017-.014-.017-.016-2.39-2.177V85.7a31.123,31.123,0,0,0,5.427-3.89,17.221,17.221,0,0,1,3.542-2.543,2.819,2.819,0,0,1,3.487.636,3.34,3.34,0,0,1,.947,2.631,5.994,5.994,0,0,1-1.116,2.818,17.784,17.784,0,0,1-2.34,2.736,70.66,70.66,0,0,1-6.019,5.065c-.862.672-1.676,1.307-2.344,1.862a14.822,14.822,0,0,1-6.206,2.863,66.635,66.635,0,0,1-7.8,1.189c-1.976.226-4.019.459-6.172.8a16.435,16.435,0,0,1-2.58.195A22.971,22.971,0,0,1-3265.039,99.647Zm-5.711-3.163c3.277,1.254,8.063,2.61,12.254,1.944,2.185-.347,4.244-.583,6.235-.81,5.675-.649,10.156-1.161,13.248-3.727.686-.569,1.508-1.21,2.379-1.889a69.543,69.543,0,0,0,5.893-4.955c1.917-1.887,2.935-3.445,3.027-4.63a1.887,1.887,0,0,0-.558-1.523c-1.051-1.12-2.216-.334-5.036,2.027-3.168,2.651-7.508,6.283-13.91,5.883a192.247,192.247,0,0,1-19.2-2.118l.232-1.437c6.064.981,12.244,1.674,18.379,2.061a3.544,3.544,0,0,0-.991-2.462c-1.683-1.742-5.141-1.931-6.549-1.931h-.006a26.521,26.521,0,0,1-6.165-.779,26.533,26.533,0,0,1-5.8-2.187,23.372,23.372,0,0,0-5.008-1.682l-.009,0a18.287,18.287,0,0,0-4.7-.44V93.612l.048-.08A44.463,44.463,0,0,0-3270.75,96.484Zm-13.654-22.2V96.788a.533.533,0,0,0,.533.533h4.85a.534.534,0,0,0,.533-.533V74.282a.534.534,0,0,0-.533-.533h-4.85A.533.533,0,0,0-3284.4,74.282Zm33.771-5.164V82.136a7.02,7.02,0,0,1,2.882,1.7,5.024,5.024,0,0,1,1.4,3.542,13.509,13.509,0,0,0,5.228-1.008V67.44h.126l-15.443-14.069-15.02,13.953v9.651a24.837,24.837,0,0,1,4.769,1.665l.026.013a25.02,25.02,0,0,0,4.9,1.913V69.118Zm-9.679,11.8a24.963,24.963,0,0,0,4.97.543,17.3,17.3,0,0,1,3.256.3V70.573h-8.226Zm23.993-11.188a2.8,2.8,0,0,0,1.47.564,1.155,1.155,0,0,0,.863-.369,1.277,1.277,0,0,0,.351-.922,1.274,1.274,0,0,0-.421-.9l-.017-.016c-.19-.181-18.953-18.111-20.824-19.973l-.021-.021-.019-.022a1.6,1.6,0,0,0-1.219-.562h0a1.6,1.6,0,0,0-1.219.562l-.027.032-.031.029-20.735,19.241a2.872,2.872,0,0,0-.919,1.659,1.027,1.027,0,0,0,.333.769,1.874,1.874,0,0,0,1.25.477,1.882,1.882,0,0,0,1.167-.407l19.892-18.48Zm-34.663-11.008,3.934-3.651V52.414h-3.934Z" transform="translate(3285.858 -46.059)" fill="#d16617"/>
</svg>
