<svg xmlns="http://www.w3.org/2000/svg" xmlns:xlink="http://www.w3.org/1999/xlink" width="271.56" height="275" viewBox="0 0 271.56 275">
  <defs>
    <clipPath id="clip-path">
      <path id="Tracé_1116" data-name="Tracé 1116" d="M5.657,0H265.9c3.125,0,5.658,4.335,5.658,9.683V265.317c0,5.348-2.533,9.683-5.658,9.683H5.657C2.533,275,0,270.665,0,265.317V9.683C0,4.335,2.533,0,5.657,0Z" transform="translate(560 1306)" fill="#81b2dc"/>
    </clipPath>
  </defs>
  <g id="ico-com" transform="translate(-560 -1306)" clip-path="url(#clip-path)">
    <path id="Tracé_1115" data-name="Tracé 1115" d="M716.4,1696.6s21.147-23.892,34.365-16.623,13.878,5.287,19.165,0,19.826-2.643,23.13-8.591,0-29.739,30.4-33.043,33.7,11.9,35.026,19.165,11.234,11.9,19.165,5.948,13.217-5.948,13.217-5.948-9.913-15.2,0-22.47,29.078-13.217,29.078-13.217S886.9,1593.4,900.783,1578.2s27.6-15.735,26.354-28.551-16.2-16.019-21-11.035-14.951,9.078-19.935,6.942-19.223,3.382-26.52,6.052-37.022-.356-25.274-15.307,57.983-42.751,71.73-43.141c-10.5-12.9,0-32.065,0-32.065v-20.279H655.656V1723.94H716.4Z" transform="translate(-95.656 -137.708)" fill="#4d6f97"/>
  </g>
</svg>
