<svg xmlns="http://www.w3.org/2000/svg" width="23.172" height="34.52" viewBox="0 0 23.172 34.52">
  <path id="ico-agenda" d="M-1194.049,43.414l-13.155-4.022V36.256l14.033,4.29,4.824-15.78L-1207.2,19V11.324a2.988,2.988,0,0,1,.968.13l1.434.438.877-2.868,2.869.877-.878,2.869,11.476,3.508.877-2.868,2.869.877-.877,2.869,1.434.438a3.009,3.009,0,0,1,1.993,3.746l-6.141,20.083a3.012,3.012,0,0,1-2.875,2.122A2.976,2.976,0,0,1-1194.049,43.414Zm-1.791-14.664.878-2.869,2.869.877-.877,2.869ZM-1201.577,27l.877-2.868,2.868.877-.877,2.869Zm-5.627-1.72v-.4l.766-2.506,2.869.877-.878,2.869Z" transform="translate(1207.204 -9.024)" fill="#4d6f97"/>
</svg>
