<svg xmlns="http://www.w3.org/2000/svg" width="86.062" height="54" viewBox="0 0 86.062 54">
  <g id="ico-conseil" transform="translate(-751.683 -633.53)">
    <path id="Intersection_6" data-name="Intersection 6" d="M29.182,54a9.6,9.6,0,0,1-6.762-3.766,10,10,0,0,1-1.915-4.539,14.711,14.711,0,0,1,.186-5.239H0L.011,39.4a20.689,20.689,0,0,1,2.126-8.28,14.884,14.884,0,0,1,5-5.774,15.119,15.119,0,0,1,5.275-2.188,9.316,9.316,0,1,1,8.637.014,16.3,16.3,0,0,1,3.128,1.008,14.633,14.633,0,0,1,4.243,2.841,22.595,22.595,0,0,1,9.34-4.886,11.644,11.644,0,1,1,10.225-.044,21,21,0,0,1,9.3,4.9,14.084,14.084,0,0,1,4.132-2.81,15.941,15.941,0,0,1,3.166-1.024,9.315,9.315,0,1,1,8.637.014,15.081,15.081,0,0,1,10.425,7.926,21.125,21.125,0,0,1,2.373,8.271l.044,1.091H64.752A11.979,11.979,0,0,1,63.657,49.1a11.173,11.173,0,0,1-6.406,4.868L57.127,54ZM4.01,32.062a18.9,18.9,0,0,0-1.824,6.3h21.2l-.357,1.322c-1.047,3.873-.691,6.995,1.057,9.278a7.565,7.565,0,0,0,5.1,2.944H56.853a9.212,9.212,0,0,0,1.814-.8,8.458,8.458,0,0,0,3.194-3.087c1.276-2.19,1.462-4.994.553-8.334l-.36-1.324H83.806a19.45,19.45,0,0,0-2.044-6.336c-2.584-4.779-6.925-7.2-12.9-7.2-4.587,0-8.192,1.448-10.715,4.3a5.961,5.961,0,0,1,1.374,3.688c0,5.145-7.554,9.316-16.872,9.316s-16.872-4.171-16.872-9.316A6.068,6.068,0,0,1,27.337,28.9c-2.6-2.705-6.177-4.076-10.64-4.076C10.705,24.82,6.437,27.256,4.01,32.062ZM61.7,14.9a7.218,7.218,0,1,0,7.218-7.218A7.226,7.226,0,0,0,61.7,14.9ZM9.53,14.9a7.218,7.218,0,1,0,7.218-7.218A7.226,7.226,0,0,0,9.53,14.9Z" transform="translate(751.683 633.53)" fill="#a62611"/>
    <path id="Tracé_1160" data-name="Tracé 1160" d="M-16356.744-13345.667s-7.374,12.578-6.146,14.7.247,8.22,6.146,9.092,17.452.872,17.452.872h12.413s4.3-2.616,5.407-4.857,2.09-6.477.615-9.341-3.81-9.838-6.022-10.461-23.967-1-24.335-.872S-16356.744-13345.667-16356.744-13345.667Z" transform="translate(17136 14007.642)" fill="#a62611"/>
  </g>
</svg>
