<svg xmlns="http://www.w3.org/2000/svg" xmlns:xlink="http://www.w3.org/1999/xlink" width="60" height="60" viewBox="0 0 60 60">
  <defs>
    <clipPath id="clip-path">
      <rect id="Rectangle_42" data-name="Rectangle 42" width="60" height="60" transform="translate(843.359 866.203)" fill="#ea6238"/>
    </clipPath>
  </defs>
  <g id="ico-election" transform="translate(-843.359 -866.203)" clip-path="url(#clip-path)">
    <g id="Groupe_198" data-name="Groupe 198" transform="translate(843.647 866.449)">
      <path id="Rectangle_12" data-name="Rectangle 12" d="M6.925,1.484A5.441,5.441,0,0,0,1.484,6.925V28.069a5.441,5.441,0,0,0,5.441,5.441H52.433a5.441,5.441,0,0,0,5.441-5.441V6.925a5.441,5.441,0,0,0-5.441-5.441H6.925M6.925,0H52.433a6.925,6.925,0,0,1,6.925,6.925V28.069a6.925,6.925,0,0,1-6.925,6.925H6.925A6.925,6.925,0,0,1,0,28.069V6.925A6.925,6.925,0,0,1,6.925,0Z" transform="translate(0 24.483)" fill="#ea6238"/>
      <path id="Ligne_9" data-name="Ligne 9" d="M35.251-.016H-.758A.742.742,0,0,1-1.5-.758.742.742,0,0,1-.758-1.5H35.251a.742.742,0,0,1,.742.742A.742.742,0,0,1,35.251-.016Z" transform="translate(12.51 34.067)" fill="#ea6238"/>
      <path id="Ligne_10" data-name="Ligne 10" d="M59.166-.016H0V-1.5H59.166Z" transform="translate(0.058 41.014)" fill="#ea6238"/>
      <path id="Tracé_9" data-name="Tracé 9" d="M.1,0h37.63V22.81l-27.573.416L4.035,19.688,0,17.359Z" transform="translate(11.179 18.867) rotate(-30)" fill="#ea6238"/>
      <path id="Tracé_9_-_Contour" data-name="Tracé 9 - Contour" d="M1.579,1.484l-.09,15.021,9.059,5.23,25.7-.387V1.484H1.579M.1,0h37.63V22.81l-27.573.416L0,17.359Z" transform="translate(11.179 18.867) rotate(-30)" fill="#ea6238"/>
      <g id="Icon_feather-check-circle" data-name="Icon feather-check-circle" transform="matrix(0.755, -0.656, 0.656, 0.755, 22.468, 18.845)">
        <path id="Tracé_10" data-name="Tracé 10" d="M7.31,14.619q-.136,0-.273-.005A7.31,7.31,0,1,1,10.284.633a.664.664,0,1,1-.541,1.214,5.98,5.98,0,0,0-7.451,8.717,5.98,5.98,0,0,0,11-3.251V6.7a.664.664,0,1,1,1.329,0v.611A7.311,7.311,0,0,1,7.31,14.619Z" transform="translate(0 0)" fill="#fff"/>
        <path id="Tracé_11" data-name="Tracé 11" d="M2.658,7.98a.664.664,0,0,1-.47-.195L.195,5.792a.664.664,0,0,1,.94-.94L2.658,6.376,8.832.195a.664.664,0,1,1,.94.939L3.128,7.785a.664.664,0,0,1-.47.195Z" transform="translate(4.651 1.333)" fill="#fff"/>
      </g>
    </g>
  </g>
</svg>
