<svg xmlns="http://www.w3.org/2000/svg" xmlns:xlink="http://www.w3.org/1999/xlink" width="171.896" height="275" viewBox="0 0 171.896 275">
  <defs>
    <clipPath id="clip-path">
      <path id="Tracé_1125" data-name="Tracé 1125" d="M3.581,0H168.315c1.978,0,3.581,4.335,3.581,9.683V265.317c0,5.348-1.6,9.683-3.581,9.683H3.581C1.6,275,0,270.665,0,265.317V9.683C0,4.335,1.6,0,3.581,0Z" transform="translate(1570 1306)" fill="#81b2dc"/>
    </clipPath>
  </defs>
  <g id="ico-eau" transform="translate(-1570 -1306)" clip-path="url(#clip-path)">
    <path id="Icon_ionic-ios-water" data-name="Icon ionic-ios-water" d="M200.7,77.932c-26.062-36.82-51.138-59.472-68.791-73.185a6.48,6.48,0,0,0-7.879-.076C106.6,17.627,81.526,41.34,55.464,77.781c-28.259,39.4-47.729,82.124-48.638,129.475,0,.909-.076,1.894-.076,2.8a99.01,99.01,0,0,0,8.258,39.471,106.452,106.452,0,0,0,11.516,19.925C48.115,299,85.465,318.548,127.891,318.548c66.972,0,121.293-48.563,121.293-108.489C249.184,161.8,228.729,117.479,200.7,77.932ZM135.543,278.167h-.379c-7.5,0-9.091-10.682-1.97-12.955,34.168-10.758,52.729-29.168,65.457-61.215,2.652-6.743,12.652-4.924,12.728,2.349v1.061C211.3,246.5,177.363,278.167,135.543,278.167Z" transform="translate(1492.713 1209.626)" fill="#4d6f97"/>
  </g>
</svg>
