<svg xmlns="http://www.w3.org/2000/svg" width="43.781" height="56.008" viewBox="0 0 43.781 56.008">
  <path id="ico-eau" d="M-3300.323,152.618a18.856,18.856,0,0,1-2.08-3.541,17.357,17.357,0,0,1-1.491-7.014c0-.162.014-.337.014-.5.164-8.415,3.68-16.007,8.784-23.008a59.893,59.893,0,0,1,12.382-12.992,1.185,1.185,0,0,1,1.422.013,60.638,60.638,0,0,1,12.423,13.005c5.062,7.028,8.756,14.9,8.756,23.479,0,10.649-9.81,19.279-21.9,19.279A22.715,22.715,0,0,1-3300.323,152.618Zm31.084-11.632c-2.3,5.695-5.65,8.966-11.821,10.878a1.178,1.178,0,0,0,.356,2.3h.068c7.552,0,13.682-5.628,13.7-12.574V141.4a1.165,1.165,0,0,0-1.2-1.163A1.152,1.152,0,0,0-3269.239,140.986Z" transform="translate(3303.894 -105.334)" fill="#639ed8"/>
</svg>
