<svg xmlns="http://www.w3.org/2000/svg" xmlns:xlink="http://www.w3.org/1999/xlink" width="51.947" height="63.506" viewBox="0 0 51.947 63.506">
  <defs>
    <clipPath id="clip-path">
      <path id="Tracé_1126" data-name="Tracé 1126" d="M1.082,0H50.864c.6,0,1.082,1,1.082,2.236V61.27c0,1.235-.485,2.236-1.082,2.236H1.082c-.6,0-1.082-1-1.082-2.236V2.236C0,1,.485,0,1.082,0Z" transform="translate(1531.117 1007.615)" fill="#40608d"/>
    </clipPath>
    <clipPath id="clip-path-2">
      <rect width="51.946" height="63.506" fill="none"/>
    </clipPath>
  </defs>
  <g id="ico-actes" transform="translate(-1531.117 -1007.615)" clip-path="url(#clip-path)">
    <g id="Grille_de_répétition_2" data-name="Grille de répétition 2" transform="translate(1531.119 1007.615)" clip-path="url(#clip-path-2)">
      <g transform="translate(-1531.119 -1007.615)">
        <g id="Groupe_158" data-name="Groupe 158" transform="matrix(0.978, -0.208, 0.208, 0.978, 1531.119, 1016.174)">
          <circle id="Ellipse_2" data-name="Ellipse 2" cx="5.36" cy="5.36" r="5.36" transform="translate(24.442 33.019)" fill="#40608d"/>
          <g id="Groupe_154" data-name="Groupe 154" transform="translate(0 0)">
            <path id="Rectangle_11" data-name="Rectangle 11" d="M5.2,1.56A3.645,3.645,0,0,0,1.56,5.2V50.973A3.645,3.645,0,0,0,5.2,54.614H35.965a3.645,3.645,0,0,0,3.641-3.641V5.2A3.645,3.645,0,0,0,35.965,1.56H5.2M5.2,0H35.965a5.2,5.2,0,0,1,5.2,5.2V50.973a5.2,5.2,0,0,1-5.2,5.2H5.2a5.2,5.2,0,0,1-5.2-5.2V5.2A5.2,5.2,0,0,1,5.2,0Z" transform="translate(0 0)" fill="#40608d"/>
            <path id="Ligne_1" data-name="Ligne 1" d="M13.216,1.56H.78A.78.78,0,0,1,.78,0H13.216a.78.78,0,0,1,0,1.56Z" transform="translate(13.156 9.726)" fill="#40608d"/>
            <path id="Ligne_2" data-name="Ligne 2" d="M30.368,1.56H.78A.78.78,0,1,1,.78,0H30.368a.78.78,0,1,1,0,1.56Z" transform="translate(5.009 15.3)" fill="#40608d"/>
            <path id="Ligne_5" data-name="Ligne 5" d="M30.368,1.56H.78A.78.78,0,1,1,.78,0H30.368a.78.78,0,1,1,0,1.56Z" transform="translate(5.009 26.449)" fill="#40608d"/>
            <path id="Ligne_6" data-name="Ligne 6" d="M11.5,1.56H.78A.78.78,0,1,1,.78,0H11.5a.78.78,0,1,1,0,1.56Z" transform="translate(5.009 32.024)" fill="#40608d"/>
            <path id="Ligne_7" data-name="Ligne 7" d="M5.068,1.56H.78A.78.78,0,1,1,.78,0H5.068a.78.78,0,1,1,0,1.56Z" transform="translate(5.009 36.741)" fill="#40608d"/>
            <path id="Ligne_8" data-name="Ligne 8" d="M3.353,1.56H.78A.78.78,0,0,1,.78,0H3.353a.78.78,0,0,1,0,1.56Z" transform="translate(13.156 36.741)" fill="#40608d"/>
            <path id="Ligne_3" data-name="Ligne 3" d="M20.934,1.56H.78A.78.78,0,1,1,.78,0H20.934a.78.78,0,0,1,0,1.56Z" transform="translate(5.009 20.875)" fill="#40608d"/>
            <path id="Ligne_4" data-name="Ligne 4" d="M5.926,1.56H.78A.78.78,0,0,1,.78,0H5.926a.78.78,0,1,1,0,1.56Z" transform="translate(29.451 20.875)" fill="#40608d"/>
            <path id="Tracé_6" data-name="Tracé 6" d="M1.56,1.56V4.4l1.33-.888a1.56,1.56,0,0,1,1.769.025l1.07.759V1.56H1.56M0,0H7.29V7.316L3.757,4.809,0,7.316Z" transform="translate(26.158 42.437)" fill="#40608d"/>
            <path id="Ellipse_2_-_Contour" data-name="Ellipse 2 - Contour" d="M5.36,1.56a3.8,3.8,0,1,0,3.8,3.8,3.8,3.8,0,0,0-3.8-3.8M5.36,0A5.36,5.36,0,1,1,0,5.36,5.36,5.36,0,0,1,5.36,0Z" transform="translate(24.442 33.019)" fill="#40608d"/>
          </g>
          <circle id="Ellipse_63" data-name="Ellipse 63" cx="4.379" cy="4.379" r="4.379" transform="translate(25.49 34.128)" fill="#40608d"/>
          <path id="Tracé_1135" data-name="Tracé 1135" d="M0,0,.046,4.079,2.577,2.914,4.942,4.289l.2-4.275Z" transform="translate(27.32 43.544)" fill="#40608d"/>
        </g>
      </g>
    </g>
  </g>
</svg>
